<?xml version="1.0" encoding="utf-8" standalone="no"?>
<!DOCTYPE svg PUBLIC "-//W3C//DTD SVG 1.1//EN"
  "http://www.w3.org/Graphics/SVG/1.1/DTD/svg11.dtd">
<!-- Created with matplotlib (http://matplotlib.org/) -->
<svg height="252.659774pt" version="1.1" viewBox="0 0 381.965625 252.659774" width="381.965625pt" xmlns="http://www.w3.org/2000/svg" xmlns:xlink="http://www.w3.org/1999/xlink">
 <defs>
  <style type="text/css">
*{stroke-linecap:butt;stroke-linejoin:round;}
  </style>
 </defs>
 <g id="figure_1">
  <g id="patch_1">
   <path d="M 0 252.659774 
L 381.965625 252.659774 
L 381.965625 0 
L 0 0 
z
" style="fill:none;"/>
  </g>
  <g id="axes_1">
   <g id="patch_2">
    <path d="M 36.465625 228.781649 
L 371.265625 228.781649 
L 371.265625 11.341649 
L 36.465625 11.341649 
z
" style="fill:#ffffff;"/>
   </g>
   <g id="matplotlib.axis_1">
    <g id="xtick_1">
     <g id="line2d_1">
      <defs>
       <path d="M 0 0 
L 0 3.5 
" id="m758f2b5356" style="stroke:#000000;stroke-width:0.8;"/>
      </defs>
      <g>
       <use style="stroke:#000000;stroke-width:0.8;" x="51.683807" xlink:href="#m758f2b5356" y="228.781649"/>
      </g>
     </g>
     <g id="text_1">
      <!-- 0 -->
      <defs>
       <path d="M 31.78125 66.40625 
Q 24.171875 66.40625 20.328125 58.90625 
Q 16.5 51.421875 16.5 36.375 
Q 16.5 21.390625 20.328125 13.890625 
Q 24.171875 6.390625 31.78125 6.390625 
Q 39.453125 6.390625 43.28125 13.890625 
Q 47.125 21.390625 47.125 36.375 
Q 47.125 51.421875 43.28125 58.90625 
Q 39.453125 66.40625 31.78125 66.40625 
z
M 31.78125 74.21875 
Q 44.046875 74.21875 50.515625 64.515625 
Q 56.984375 54.828125 56.984375 36.375 
Q 56.984375 17.96875 50.515625 8.265625 
Q 44.046875 -1.421875 31.78125 -1.421875 
Q 19.53125 -1.421875 13.0625 8.265625 
Q 6.59375 17.96875 6.59375 36.375 
Q 6.59375 54.828125 13.0625 64.515625 
Q 19.53125 74.21875 31.78125 74.21875 
z
" id="DejaVuSans-30"/>
      </defs>
      <g transform="translate(48.502557 243.380087)scale(0.1 -0.1)">
       <use xlink:href="#DejaVuSans-30"/>
      </g>
     </g>
    </g>
    <g id="xtick_2">
     <g id="line2d_2">
      <g>
       <use style="stroke:#000000;stroke-width:0.8;" x="112.801003" xlink:href="#m758f2b5356" y="228.781649"/>
      </g>
     </g>
     <g id="text_2">
      <!-- 1000 -->
      <defs>
       <path d="M 12.40625 8.296875 
L 28.515625 8.296875 
L 28.515625 63.921875 
L 10.984375 60.40625 
L 10.984375 69.390625 
L 28.421875 72.90625 
L 38.28125 72.90625 
L 38.28125 8.296875 
L 54.390625 8.296875 
L 54.390625 0 
L 12.40625 0 
z
" id="DejaVuSans-31"/>
      </defs>
      <g transform="translate(100.076003 243.380087)scale(0.1 -0.1)">
       <use xlink:href="#DejaVuSans-31"/>
       <use x="63.623047" xlink:href="#DejaVuSans-30"/>
       <use x="127.246094" xlink:href="#DejaVuSans-30"/>
       <use x="190.869141" xlink:href="#DejaVuSans-30"/>
      </g>
     </g>
    </g>
    <g id="xtick_3">
     <g id="line2d_3">
      <g>
       <use style="stroke:#000000;stroke-width:0.8;" x="173.918199" xlink:href="#m758f2b5356" y="228.781649"/>
      </g>
     </g>
     <g id="text_3">
      <!-- 2000 -->
      <defs>
       <path d="M 19.1875 8.296875 
L 53.609375 8.296875 
L 53.609375 0 
L 7.328125 0 
L 7.328125 8.296875 
Q 12.9375 14.109375 22.625 23.890625 
Q 32.328125 33.6875 34.8125 36.53125 
Q 39.546875 41.84375 41.421875 45.53125 
Q 43.3125 49.21875 43.3125 52.78125 
Q 43.3125 58.59375 39.234375 62.25 
Q 35.15625 65.921875 28.609375 65.921875 
Q 23.96875 65.921875 18.8125 64.3125 
Q 13.671875 62.703125 7.8125 59.421875 
L 7.8125 69.390625 
Q 13.765625 71.78125 18.9375 73 
Q 24.125 74.21875 28.421875 74.21875 
Q 39.75 74.21875 46.484375 68.546875 
Q 53.21875 62.890625 53.21875 53.421875 
Q 53.21875 48.921875 51.53125 44.890625 
Q 49.859375 40.875 45.40625 35.40625 
Q 44.1875 33.984375 37.640625 27.21875 
Q 31.109375 20.453125 19.1875 8.296875 
z
" id="DejaVuSans-32"/>
      </defs>
      <g transform="translate(161.193199 243.380087)scale(0.1 -0.1)">
       <use xlink:href="#DejaVuSans-32"/>
       <use x="63.623047" xlink:href="#DejaVuSans-30"/>
       <use x="127.246094" xlink:href="#DejaVuSans-30"/>
       <use x="190.869141" xlink:href="#DejaVuSans-30"/>
      </g>
     </g>
    </g>
    <g id="xtick_4">
     <g id="line2d_4">
      <g>
       <use style="stroke:#000000;stroke-width:0.8;" x="235.035395" xlink:href="#m758f2b5356" y="228.781649"/>
      </g>
     </g>
     <g id="text_4">
      <!-- 3000 -->
      <defs>
       <path d="M 40.578125 39.3125 
Q 47.65625 37.796875 51.625 33 
Q 55.609375 28.21875 55.609375 21.1875 
Q 55.609375 10.40625 48.1875 4.484375 
Q 40.765625 -1.421875 27.09375 -1.421875 
Q 22.515625 -1.421875 17.65625 -0.515625 
Q 12.796875 0.390625 7.625 2.203125 
L 7.625 11.71875 
Q 11.71875 9.328125 16.59375 8.109375 
Q 21.484375 6.890625 26.8125 6.890625 
Q 36.078125 6.890625 40.9375 10.546875 
Q 45.796875 14.203125 45.796875 21.1875 
Q 45.796875 27.640625 41.28125 31.265625 
Q 36.765625 34.90625 28.71875 34.90625 
L 20.21875 34.90625 
L 20.21875 43.015625 
L 29.109375 43.015625 
Q 36.375 43.015625 40.234375 45.921875 
Q 44.09375 48.828125 44.09375 54.296875 
Q 44.09375 59.90625 40.109375 62.90625 
Q 36.140625 65.921875 28.71875 65.921875 
Q 24.65625 65.921875 20.015625 65.03125 
Q 15.375 64.15625 9.8125 62.3125 
L 9.8125 71.09375 
Q 15.4375 72.65625 20.34375 73.4375 
Q 25.25 74.21875 29.59375 74.21875 
Q 40.828125 74.21875 47.359375 69.109375 
Q 53.90625 64.015625 53.90625 55.328125 
Q 53.90625 49.265625 50.4375 45.09375 
Q 46.96875 40.921875 40.578125 39.3125 
z
" id="DejaVuSans-33"/>
      </defs>
      <g transform="translate(222.310395 243.380087)scale(0.1 -0.1)">
       <use xlink:href="#DejaVuSans-33"/>
       <use x="63.623047" xlink:href="#DejaVuSans-30"/>
       <use x="127.246094" xlink:href="#DejaVuSans-30"/>
       <use x="190.869141" xlink:href="#DejaVuSans-30"/>
      </g>
     </g>
    </g>
    <g id="xtick_5">
     <g id="line2d_5">
      <g>
       <use style="stroke:#000000;stroke-width:0.8;" x="296.152591" xlink:href="#m758f2b5356" y="228.781649"/>
      </g>
     </g>
     <g id="text_5">
      <!-- 4000 -->
      <defs>
       <path d="M 37.796875 64.3125 
L 12.890625 25.390625 
L 37.796875 25.390625 
z
M 35.203125 72.90625 
L 47.609375 72.90625 
L 47.609375 25.390625 
L 58.015625 25.390625 
L 58.015625 17.1875 
L 47.609375 17.1875 
L 47.609375 0 
L 37.796875 0 
L 37.796875 17.1875 
L 4.890625 17.1875 
L 4.890625 26.703125 
z
" id="DejaVuSans-34"/>
      </defs>
      <g transform="translate(283.427591 243.380087)scale(0.1 -0.1)">
       <use xlink:href="#DejaVuSans-34"/>
       <use x="63.623047" xlink:href="#DejaVuSans-30"/>
       <use x="127.246094" xlink:href="#DejaVuSans-30"/>
       <use x="190.869141" xlink:href="#DejaVuSans-30"/>
      </g>
     </g>
    </g>
    <g id="xtick_6">
     <g id="line2d_6">
      <g>
       <use style="stroke:#000000;stroke-width:0.8;" x="357.269787" xlink:href="#m758f2b5356" y="228.781649"/>
      </g>
     </g>
     <g id="text_6">
      <!-- 5000 -->
      <defs>
       <path d="M 10.796875 72.90625 
L 49.515625 72.90625 
L 49.515625 64.59375 
L 19.828125 64.59375 
L 19.828125 46.734375 
Q 21.96875 47.46875 24.109375 47.828125 
Q 26.265625 48.1875 28.421875 48.1875 
Q 40.625 48.1875 47.75 41.5 
Q 54.890625 34.8125 54.890625 23.390625 
Q 54.890625 11.625 47.5625 5.09375 
Q 40.234375 -1.421875 26.90625 -1.421875 
Q 22.3125 -1.421875 17.546875 -0.640625 
Q 12.796875 0.140625 7.71875 1.703125 
L 7.71875 11.625 
Q 12.109375 9.234375 16.796875 8.0625 
Q 21.484375 6.890625 26.703125 6.890625 
Q 35.15625 6.890625 40.078125 11.328125 
Q 45.015625 15.765625 45.015625 23.390625 
Q 45.015625 31 40.078125 35.4375 
Q 35.15625 39.890625 26.703125 39.890625 
Q 22.75 39.890625 18.8125 39.015625 
Q 14.890625 38.140625 10.796875 36.28125 
z
" id="DejaVuSans-35"/>
      </defs>
      <g transform="translate(344.544787 243.380087)scale(0.1 -0.1)">
       <use xlink:href="#DejaVuSans-35"/>
       <use x="63.623047" xlink:href="#DejaVuSans-30"/>
       <use x="127.246094" xlink:href="#DejaVuSans-30"/>
       <use x="190.869141" xlink:href="#DejaVuSans-30"/>
      </g>
     </g>
    </g>
   </g>
   <g id="matplotlib.axis_2">
    <g id="ytick_1">
     <g id="line2d_7">
      <defs>
       <path d="M 0 0 
L -3.5 0 
" id="mffc8742cfa" style="stroke:#000000;stroke-width:0.8;"/>
      </defs>
      <g>
       <use style="stroke:#000000;stroke-width:0.8;" x="36.465625" xlink:href="#mffc8742cfa" y="214.665156"/>
      </g>
     </g>
     <g id="text_7">
      <!-- 0.15 -->
      <defs>
       <path d="M 10.6875 12.40625 
L 21 12.40625 
L 21 0 
L 10.6875 0 
z
" id="DejaVuSans-2e"/>
      </defs>
      <g transform="translate(7.2 218.464374)scale(0.1 -0.1)">
       <use xlink:href="#DejaVuSans-30"/>
       <use x="63.623047" xlink:href="#DejaVuSans-2e"/>
       <use x="95.410156" xlink:href="#DejaVuSans-31"/>
       <use x="159.033203" xlink:href="#DejaVuSans-35"/>
      </g>
     </g>
    </g>
    <g id="ytick_2">
     <g id="line2d_8">
      <g>
       <use style="stroke:#000000;stroke-width:0.8;" x="36.465625" xlink:href="#mffc8742cfa" y="180.720833"/>
      </g>
     </g>
     <g id="text_8">
      <!-- 0.20 -->
      <g transform="translate(7.2 184.520052)scale(0.1 -0.1)">
       <use xlink:href="#DejaVuSans-30"/>
       <use x="63.623047" xlink:href="#DejaVuSans-2e"/>
       <use x="95.410156" xlink:href="#DejaVuSans-32"/>
       <use x="159.033203" xlink:href="#DejaVuSans-30"/>
      </g>
     </g>
    </g>
    <g id="ytick_3">
     <g id="line2d_9">
      <g>
       <use style="stroke:#000000;stroke-width:0.8;" x="36.465625" xlink:href="#mffc8742cfa" y="146.77651"/>
      </g>
     </g>
     <g id="text_9">
      <!-- 0.25 -->
      <g transform="translate(7.2 150.575729)scale(0.1 -0.1)">
       <use xlink:href="#DejaVuSans-30"/>
       <use x="63.623047" xlink:href="#DejaVuSans-2e"/>
       <use x="95.410156" xlink:href="#DejaVuSans-32"/>
       <use x="159.033203" xlink:href="#DejaVuSans-35"/>
      </g>
     </g>
    </g>
    <g id="ytick_4">
     <g id="line2d_10">
      <g>
       <use style="stroke:#000000;stroke-width:0.8;" x="36.465625" xlink:href="#mffc8742cfa" y="112.832187"/>
      </g>
     </g>
     <g id="text_10">
      <!-- 0.30 -->
      <g transform="translate(7.2 116.631406)scale(0.1 -0.1)">
       <use xlink:href="#DejaVuSans-30"/>
       <use x="63.623047" xlink:href="#DejaVuSans-2e"/>
       <use x="95.410156" xlink:href="#DejaVuSans-33"/>
       <use x="159.033203" xlink:href="#DejaVuSans-30"/>
      </g>
     </g>
    </g>
    <g id="ytick_5">
     <g id="line2d_11">
      <g>
       <use style="stroke:#000000;stroke-width:0.8;" x="36.465625" xlink:href="#mffc8742cfa" y="78.887864"/>
      </g>
     </g>
     <g id="text_11">
      <!-- 0.35 -->
      <g transform="translate(7.2 82.687083)scale(0.1 -0.1)">
       <use xlink:href="#DejaVuSans-30"/>
       <use x="63.623047" xlink:href="#DejaVuSans-2e"/>
       <use x="95.410156" xlink:href="#DejaVuSans-33"/>
       <use x="159.033203" xlink:href="#DejaVuSans-35"/>
      </g>
     </g>
    </g>
    <g id="ytick_6">
     <g id="line2d_12">
      <g>
       <use style="stroke:#000000;stroke-width:0.8;" x="36.465625" xlink:href="#mffc8742cfa" y="44.943542"/>
      </g>
     </g>
     <g id="text_12">
      <!-- 0.40 -->
      <g transform="translate(7.2 48.74276)scale(0.1 -0.1)">
       <use xlink:href="#DejaVuSans-30"/>
       <use x="63.623047" xlink:href="#DejaVuSans-2e"/>
       <use x="95.410156" xlink:href="#DejaVuSans-34"/>
       <use x="159.033203" xlink:href="#DejaVuSans-30"/>
      </g>
     </g>
    </g>
    <g id="ytick_7">
     <g id="line2d_13">
      <g>
       <use style="stroke:#000000;stroke-width:0.8;" x="36.465625" xlink:href="#mffc8742cfa" y="10.999219"/>
      </g>
     </g>
     <g id="text_13">
      <!-- 0.45 -->
      <g transform="translate(7.2 14.798438)scale(0.1 -0.1)">
       <use xlink:href="#DejaVuSans-30"/>
       <use x="63.623047" xlink:href="#DejaVuSans-2e"/>
       <use x="95.410156" xlink:href="#DejaVuSans-34"/>
       <use x="159.033203" xlink:href="#DejaVuSans-35"/>
      </g>
     </g>
    </g>
   </g>
   <g id="line2d_14">
    <defs>
     <path d="M 0 1 
C 0.265203 1 0.51958 0.894634 0.707107 0.707107 
C 0.894634 0.51958 1 0.265203 1 0 
C 1 -0.265203 0.894634 -0.51958 0.707107 -0.707107 
C 0.51958 -0.894634 0.265203 -1 0 -1 
C -0.265203 -1 -0.51958 -0.894634 -0.707107 -0.707107 
C -0.894634 -0.51958 -1 -0.265203 -1 0 
C -1 0.265203 -0.894634 0.51958 -0.707107 0.707107 
C -0.51958 0.894634 -0.265203 1 0 1 
z
" id="m088de28e0f" style="stroke:#000000;"/>
    </defs>
    <g clip-path="url(#p0b5f83de7b)">
     <use style="stroke:#000000;" x="51.683807" xlink:href="#m088de28e0f" y="21.225285"/>
     <use style="stroke:#000000;" x="52.906151" xlink:href="#m088de28e0f" y="28.764998"/>
     <use style="stroke:#000000;" x="54.128495" xlink:href="#m088de28e0f" y="38.984955"/>
     <use style="stroke:#000000;" x="55.350839" xlink:href="#m088de28e0f" y="53.1506"/>
     <use style="stroke:#000000;" x="56.573183" xlink:href="#m088de28e0f" y="41.107154"/>
     <use style="stroke:#000000;" x="57.795526" xlink:href="#m088de28e0f" y="116.948276"/>
     <use style="stroke:#000000;" x="59.01787" xlink:href="#m088de28e0f" y="99.389556"/>
     <use style="stroke:#000000;" x="60.240214" xlink:href="#m088de28e0f" y="123.189279"/>
     <use style="stroke:#000000;" x="61.462558" xlink:href="#m088de28e0f" y="210.838952"/>
     <use style="stroke:#000000;" x="62.684902" xlink:href="#m088de28e0f" y="71.07456"/>
     <use style="stroke:#000000;" x="63.907246" xlink:href="#m088de28e0f" y="128.236121"/>
     <use style="stroke:#000000;" x="65.12959" xlink:href="#m088de28e0f" y="89.011419"/>
     <use style="stroke:#000000;" x="66.351934" xlink:href="#m088de28e0f" y="218.898013"/>
     <use style="stroke:#000000;" x="67.574278" xlink:href="#m088de28e0f" y="100.52126"/>
     <use style="stroke:#000000;" x="68.796622" xlink:href="#m088de28e0f" y="157.769718"/>
     <use style="stroke:#000000;" x="70.018966" xlink:href="#m088de28e0f" y="111.249024"/>
     <use style="stroke:#000000;" x="71.24131" xlink:href="#m088de28e0f" y="145.720842"/>
     <use style="stroke:#000000;" x="72.463653" xlink:href="#m088de28e0f" y="213.06502"/>
     <use style="stroke:#000000;" x="73.685997" xlink:href="#m088de28e0f" y="148.181805"/>
     <use style="stroke:#000000;" x="74.908341" xlink:href="#m088de28e0f" y="127.588463"/>
     <use style="stroke:#000000;" x="76.130685" xlink:href="#m088de28e0f" y="159.657702"/>
     <use style="stroke:#000000;" x="77.353029" xlink:href="#m088de28e0f" y="157.631904"/>
     <use style="stroke:#000000;" x="78.575373" xlink:href="#m088de28e0f" y="133.435712"/>
     <use style="stroke:#000000;" x="79.797717" xlink:href="#m088de28e0f" y="155.437743"/>
     <use style="stroke:#000000;" x="81.020061" xlink:href="#m088de28e0f" y="157.297213"/>
     <use style="stroke:#000000;" x="82.242405" xlink:href="#m088de28e0f" y="155.680106"/>
     <use style="stroke:#000000;" x="83.464749" xlink:href="#m088de28e0f" y="157.299929"/>
     <use style="stroke:#000000;" x="84.687093" xlink:href="#m088de28e0f" y="160.791442"/>
     <use style="stroke:#000000;" x="85.909437" xlink:href="#m088de28e0f" y="142.688256"/>
     <use style="stroke:#000000;" x="87.131781" xlink:href="#m088de28e0f" y="165.300606"/>
     <use style="stroke:#000000;" x="88.354124" xlink:href="#m088de28e0f" y="207.342686"/>
     <use style="stroke:#000000;" x="89.576468" xlink:href="#m088de28e0f" y="160.923146"/>
     <use style="stroke:#000000;" x="90.798812" xlink:href="#m088de28e0f" y="206.429584"/>
     <use style="stroke:#000000;" x="92.021156" xlink:href="#m088de28e0f" y="206.274119"/>
     <use style="stroke:#000000;" x="93.2435" xlink:href="#m088de28e0f" y="164.615609"/>
     <use style="stroke:#000000;" x="94.465844" xlink:href="#m088de28e0f" y="152.228647"/>
     <use style="stroke:#000000;" x="95.688188" xlink:href="#m088de28e0f" y="151.703868"/>
     <use style="stroke:#000000;" x="96.910532" xlink:href="#m088de28e0f" y="171.612213"/>
     <use style="stroke:#000000;" x="98.132876" xlink:href="#m088de28e0f" y="170.104406"/>
     <use style="stroke:#000000;" x="99.35522" xlink:href="#m088de28e0f" y="204.250359"/>
     <use style="stroke:#000000;" x="100.577564" xlink:href="#m088de28e0f" y="171.505628"/>
     <use style="stroke:#000000;" x="101.799908" xlink:href="#m088de28e0f" y="169.420768"/>
     <use style="stroke:#000000;" x="103.022252" xlink:href="#m088de28e0f" y="159.809093"/>
     <use style="stroke:#000000;" x="104.244595" xlink:href="#m088de28e0f" y="159.473723"/>
     <use style="stroke:#000000;" x="105.466939" xlink:href="#m088de28e0f" y="200.23814"/>
     <use style="stroke:#000000;" x="106.689283" xlink:href="#m088de28e0f" y="176.821988"/>
     <use style="stroke:#000000;" x="107.911627" xlink:href="#m088de28e0f" y="163.280919"/>
     <use style="stroke:#000000;" x="109.133971" xlink:href="#m088de28e0f" y="194.62307"/>
     <use style="stroke:#000000;" x="110.356315" xlink:href="#m088de28e0f" y="174.210991"/>
     <use style="stroke:#000000;" x="111.578659" xlink:href="#m088de28e0f" y="164.733736"/>
     <use style="stroke:#000000;" x="112.801003" xlink:href="#m088de28e0f" y="193.152602"/>
     <use style="stroke:#000000;" x="114.023347" xlink:href="#m088de28e0f" y="173.849823"/>
     <use style="stroke:#000000;" x="115.245691" xlink:href="#m088de28e0f" y="181.242218"/>
     <use style="stroke:#000000;" x="116.468035" xlink:href="#m088de28e0f" y="170.281596"/>
     <use style="stroke:#000000;" x="117.690379" xlink:href="#m088de28e0f" y="190.547035"/>
     <use style="stroke:#000000;" x="118.912722" xlink:href="#m088de28e0f" y="180.073854"/>
     <use style="stroke:#000000;" x="120.135066" xlink:href="#m088de28e0f" y="182.95369"/>
     <use style="stroke:#000000;" x="121.35741" xlink:href="#m088de28e0f" y="188.957762"/>
     <use style="stroke:#000000;" x="122.579754" xlink:href="#m088de28e0f" y="179.940792"/>
     <use style="stroke:#000000;" x="123.802098" xlink:href="#m088de28e0f" y="178.443169"/>
     <use style="stroke:#000000;" x="125.024442" xlink:href="#m088de28e0f" y="182.745951"/>
     <use style="stroke:#000000;" x="126.246786" xlink:href="#m088de28e0f" y="180.598633"/>
     <use style="stroke:#000000;" x="127.46913" xlink:href="#m088de28e0f" y="183.974736"/>
     <use style="stroke:#000000;" x="128.691474" xlink:href="#m088de28e0f" y="184.236786"/>
     <use style="stroke:#000000;" x="129.913818" xlink:href="#m088de28e0f" y="178.757493"/>
     <use style="stroke:#000000;" x="131.136162" xlink:href="#m088de28e0f" y="184.129522"/>
     <use style="stroke:#000000;" x="132.358506" xlink:href="#m088de28e0f" y="181.567404"/>
     <use style="stroke:#000000;" x="133.58085" xlink:href="#m088de28e0f" y="182.147173"/>
     <use style="stroke:#000000;" x="134.803193" xlink:href="#m088de28e0f" y="180.250365"/>
     <use style="stroke:#000000;" x="136.025537" xlink:href="#m088de28e0f" y="177.82674"/>
     <use style="stroke:#000000;" x="137.247881" xlink:href="#m088de28e0f" y="182.357628"/>
     <use style="stroke:#000000;" x="138.470225" xlink:href="#m088de28e0f" y="181.139027"/>
     <use style="stroke:#000000;" x="139.692569" xlink:href="#m088de28e0f" y="181.487975"/>
     <use style="stroke:#000000;" x="140.914913" xlink:href="#m088de28e0f" y="178.865436"/>
     <use style="stroke:#000000;" x="142.137257" xlink:href="#m088de28e0f" y="184.176365"/>
     <use style="stroke:#000000;" x="143.359601" xlink:href="#m088de28e0f" y="182.32572"/>
     <use style="stroke:#000000;" x="144.581945" xlink:href="#m088de28e0f" y="180.487296"/>
     <use style="stroke:#000000;" x="145.804289" xlink:href="#m088de28e0f" y="187.441809"/>
     <use style="stroke:#000000;" x="147.026633" xlink:href="#m088de28e0f" y="180.837601"/>
     <use style="stroke:#000000;" x="148.248977" xlink:href="#m088de28e0f" y="185.491368"/>
     <use style="stroke:#000000;" x="149.471321" xlink:href="#m088de28e0f" y="182.528029"/>
     <use style="stroke:#000000;" x="150.693664" xlink:href="#m088de28e0f" y="185.15464"/>
     <use style="stroke:#000000;" x="151.916008" xlink:href="#m088de28e0f" y="186.277518"/>
     <use style="stroke:#000000;" x="153.138352" xlink:href="#m088de28e0f" y="183.723548"/>
     <use style="stroke:#000000;" x="154.360696" xlink:href="#m088de28e0f" y="186.863397"/>
     <use style="stroke:#000000;" x="155.58304" xlink:href="#m088de28e0f" y="184.320968"/>
     <use style="stroke:#000000;" x="156.805384" xlink:href="#m088de28e0f" y="185.11798"/>
     <use style="stroke:#000000;" x="158.027728" xlink:href="#m088de28e0f" y="183.950296"/>
     <use style="stroke:#000000;" x="159.250072" xlink:href="#m088de28e0f" y="185.006643"/>
     <use style="stroke:#000000;" x="160.472416" xlink:href="#m088de28e0f" y="187.356948"/>
     <use style="stroke:#000000;" x="161.69476" xlink:href="#m088de28e0f" y="184.781932"/>
     <use style="stroke:#000000;" x="162.917104" xlink:href="#m088de28e0f" y="183.948259"/>
     <use style="stroke:#000000;" x="164.139448" xlink:href="#m088de28e0f" y="184.206236"/>
     <use style="stroke:#000000;" x="165.361791" xlink:href="#m088de28e0f" y="186.871544"/>
     <use style="stroke:#000000;" x="166.584135" xlink:href="#m088de28e0f" y="185.578265"/>
     <use style="stroke:#000000;" x="167.806479" xlink:href="#m088de28e0f" y="185.369168"/>
     <use style="stroke:#000000;" x="169.028823" xlink:href="#m088de28e0f" y="187.794151"/>
     <use style="stroke:#000000;" x="170.251167" xlink:href="#m088de28e0f" y="187.344728"/>
     <use style="stroke:#000000;" x="171.473511" xlink:href="#m088de28e0f" y="184.7283"/>
     <use style="stroke:#000000;" x="172.695855" xlink:href="#m088de28e0f" y="186.401076"/>
     <use style="stroke:#000000;" x="173.918199" xlink:href="#m088de28e0f" y="184.900737"/>
     <use style="stroke:#000000;" x="175.140543" xlink:href="#m088de28e0f" y="188.11187"/>
     <use style="stroke:#000000;" x="176.362887" xlink:href="#m088de28e0f" y="188.124769"/>
     <use style="stroke:#000000;" x="177.585231" xlink:href="#m088de28e0f" y="188.657016"/>
     <use style="stroke:#000000;" x="178.807575" xlink:href="#m088de28e0f" y="186.232033"/>
     <use style="stroke:#000000;" x="180.029919" xlink:href="#m088de28e0f" y="188.621035"/>
     <use style="stroke:#000000;" x="181.252262" xlink:href="#m088de28e0f" y="188.117301"/>
     <use style="stroke:#000000;" x="182.474606" xlink:href="#m088de28e0f" y="186.922461"/>
     <use style="stroke:#000000;" x="183.69695" xlink:href="#m088de28e0f" y="185.44724"/>
     <use style="stroke:#000000;" x="184.919294" xlink:href="#m088de28e0f" y="185.926534"/>
     <use style="stroke:#000000;" x="186.141638" xlink:href="#m088de28e0f" y="188.917029"/>
     <use style="stroke:#000000;" x="187.363982" xlink:href="#m088de28e0f" y="189.084714"/>
     <use style="stroke:#000000;" x="188.586326" xlink:href="#m088de28e0f" y="185.8376"/>
     <use style="stroke:#000000;" x="189.80867" xlink:href="#m088de28e0f" y="188.881048"/>
     <use style="stroke:#000000;" x="191.031014" xlink:href="#m088de28e0f" y="188.910919"/>
     <use style="stroke:#000000;" x="192.253358" xlink:href="#m088de28e0f" y="186.564009"/>
     <use style="stroke:#000000;" x="193.475702" xlink:href="#m088de28e0f" y="189.292453"/>
     <use style="stroke:#000000;" x="194.698046" xlink:href="#m088de28e0f" y="186.663126"/>
     <use style="stroke:#000000;" x="195.92039" xlink:href="#m088de28e0f" y="186.341334"/>
     <use style="stroke:#000000;" x="197.142733" xlink:href="#m088de28e0f" y="186.304674"/>
     <use style="stroke:#000000;" x="198.365077" xlink:href="#m088de28e0f" y="189.97745"/>
     <use style="stroke:#000000;" x="199.587421" xlink:href="#m088de28e0f" y="190.634612"/>
     <use style="stroke:#000000;" x="200.809765" xlink:href="#m088de28e0f" y="187.257152"/>
     <use style="stroke:#000000;" x="202.032109" xlink:href="#m088de28e0f" y="189.937395"/>
     <use style="stroke:#000000;" x="203.254453" xlink:href="#m088de28e0f" y="187.163465"/>
     <use style="stroke:#000000;" x="204.476797" xlink:href="#m088de28e0f" y="189.126805"/>
     <use style="stroke:#000000;" x="205.699141" xlink:href="#m088de28e0f" y="187.007321"/>
     <use style="stroke:#000000;" x="206.921485" xlink:href="#m088de28e0f" y="191.197409"/>
     <use style="stroke:#000000;" x="208.143829" xlink:href="#m088de28e0f" y="186.649548"/>
     <use style="stroke:#000000;" x="209.366173" xlink:href="#m088de28e0f" y="186.713364"/>
     <use style="stroke:#000000;" x="210.588517" xlink:href="#m088de28e0f" y="190.546357"/>
     <use style="stroke:#000000;" x="211.81086" xlink:href="#m088de28e0f" y="187.809086"/>
     <use style="stroke:#000000;" x="213.033204" xlink:href="#m088de28e0f" y="191.534815"/>
     <use style="stroke:#000000;" x="214.255548" xlink:href="#m088de28e0f" y="187.798903"/>
     <use style="stroke:#000000;" x="215.477892" xlink:href="#m088de28e0f" y="189.686207"/>
     <use style="stroke:#000000;" x="216.700236" xlink:href="#m088de28e0f" y="190.946221"/>
     <use style="stroke:#000000;" x="217.92258" xlink:href="#m088de28e0f" y="190.973376"/>
     <use style="stroke:#000000;" x="219.144924" xlink:href="#m088de28e0f" y="189.103723"/>
     <use style="stroke:#000000;" x="220.367268" xlink:href="#m088de28e0f" y="187.914314"/>
     <use style="stroke:#000000;" x="221.589612" xlink:href="#m088de28e0f" y="189.835562"/>
     <use style="stroke:#000000;" x="222.811956" xlink:href="#m088de28e0f" y="191.856607"/>
     <use style="stroke:#000000;" x="224.0343" xlink:href="#m088de28e0f" y="189.686886"/>
     <use style="stroke:#000000;" x="225.256644" xlink:href="#m088de28e0f" y="188.811802"/>
     <use style="stroke:#000000;" x="226.478988" xlink:href="#m088de28e0f" y="188.290417"/>
     <use style="stroke:#000000;" x="227.701331" xlink:href="#m088de28e0f" y="190.853213"/>
     <use style="stroke:#000000;" x="228.923675" xlink:href="#m088de28e0f" y="188.155997"/>
     <use style="stroke:#000000;" x="230.146019" xlink:href="#m088de28e0f" y="189.34948"/>
     <use style="stroke:#000000;" x="231.368363" xlink:href="#m088de28e0f" y="190.181794"/>
     <use style="stroke:#000000;" x="232.590707" xlink:href="#m088de28e0f" y="192.119336"/>
     <use style="stroke:#000000;" x="233.813051" xlink:href="#m088de28e0f" y="187.740519"/>
     <use style="stroke:#000000;" x="235.035395" xlink:href="#m088de28e0f" y="190.866791"/>
     <use style="stroke:#000000;" x="236.257739" xlink:href="#m088de28e0f" y="189.831489"/>
     <use style="stroke:#000000;" x="237.480083" xlink:href="#m088de28e0f" y="189.894626"/>
     <use style="stroke:#000000;" x="238.702427" xlink:href="#m088de28e0f" y="187.976092"/>
     <use style="stroke:#000000;" x="239.924771" xlink:href="#m088de28e0f" y="191.462853"/>
     <use style="stroke:#000000;" x="241.147115" xlink:href="#m088de28e0f" y="190.938753"/>
     <use style="stroke:#000000;" x="242.369459" xlink:href="#m088de28e0f" y="190.45878"/>
     <use style="stroke:#000000;" x="243.591802" xlink:href="#m088de28e0f" y="190.982202"/>
     <use style="stroke:#000000;" x="244.814146" xlink:href="#m088de28e0f" y="188.709969"/>
     <use style="stroke:#000000;" x="246.03649" xlink:href="#m088de28e0f" y="193.335222"/>
     <use style="stroke:#000000;" x="247.258834" xlink:href="#m088de28e0f" y="191.802975"/>
     <use style="stroke:#000000;" x="248.481178" xlink:href="#m088de28e0f" y="190.969303"/>
     <use style="stroke:#000000;" x="249.703522" xlink:href="#m088de28e0f" y="193.930606"/>
     <use style="stroke:#000000;" x="250.925866" xlink:href="#m088de28e0f" y="191.342011"/>
     <use style="stroke:#000000;" x="252.14821" xlink:href="#m088de28e0f" y="188.215739"/>
     <use style="stroke:#000000;" x="253.370554" xlink:href="#m088de28e0f" y="191.410579"/>
     <use style="stroke:#000000;" x="254.592898" xlink:href="#m088de28e0f" y="191.597952"/>
     <use style="stroke:#000000;" x="255.815242" xlink:href="#m088de28e0f" y="191.172969"/>
     <use style="stroke:#000000;" x="257.037586" xlink:href="#m088de28e0f" y="191.826057"/>
     <use style="stroke:#000000;" x="258.259929" xlink:href="#m088de28e0f" y="188.701143"/>
     <use style="stroke:#000000;" x="259.482273" xlink:href="#m088de28e0f" y="191.960477"/>
     <use style="stroke:#000000;" x="260.704617" xlink:href="#m088de28e0f" y="191.860002"/>
     <use style="stroke:#000000;" x="261.926961" xlink:href="#m088de28e0f" y="190.643437"/>
     <use style="stroke:#000000;" x="263.149305" xlink:href="#m088de28e0f" y="191.112548"/>
     <use style="stroke:#000000;" x="264.371649" xlink:href="#m088de28e0f" y="194.627822"/>
     <use style="stroke:#000000;" x="265.593993" xlink:href="#m088de28e0f" y="191.710647"/>
     <use style="stroke:#000000;" x="266.816337" xlink:href="#m088de28e0f" y="192.259187"/>
     <use style="stroke:#000000;" x="268.038681" xlink:href="#m088de28e0f" y="192.274123"/>
     <use style="stroke:#000000;" x="269.261025" xlink:href="#m088de28e0f" y="191.270728"/>
     <use style="stroke:#000000;" x="270.483369" xlink:href="#m088de28e0f" y="194.557218"/>
     <use style="stroke:#000000;" x="271.705713" xlink:href="#m088de28e0f" y="191.931964"/>
     <use style="stroke:#000000;" x="272.928057" xlink:href="#m088de28e0f" y="194.720829"/>
     <use style="stroke:#000000;" x="274.1504" xlink:href="#m088de28e0f" y="191.825379"/>
     <use style="stroke:#000000;" x="275.372744" xlink:href="#m088de28e0f" y="189.554503"/>
     <use style="stroke:#000000;" x="276.595088" xlink:href="#m088de28e0f" y="194.533457"/>
     <use style="stroke:#000000;" x="277.817432" xlink:href="#m088de28e0f" y="192.777177"/>
     <use style="stroke:#000000;" x="279.039776" xlink:href="#m088de28e0f" y="192.974733"/>
     <use style="stroke:#000000;" x="280.26212" xlink:href="#m088de28e0f" y="192.570117"/>
     <use style="stroke:#000000;" x="281.484464" xlink:href="#m088de28e0f" y="192.355589"/>
     <use style="stroke:#000000;" x="282.706808" xlink:href="#m088de28e0f" y="189.344049"/>
     <use style="stroke:#000000;" x="283.929152" xlink:href="#m088de28e0f" y="192.393607"/>
     <use style="stroke:#000000;" x="285.151496" xlink:href="#m088de28e0f" y="192.39768"/>
     <use style="stroke:#000000;" x="286.37384" xlink:href="#m088de28e0f" y="194.050768"/>
     <use style="stroke:#000000;" x="287.596184" xlink:href="#m088de28e0f" y="190.051448"/>
     <use style="stroke:#000000;" x="288.818528" xlink:href="#m088de28e0f" y="193.156675"/>
     <use style="stroke:#000000;" x="290.040871" xlink:href="#m088de28e0f" y="192.054842"/>
     <use style="stroke:#000000;" x="291.263215" xlink:href="#m088de28e0f" y="194.905486"/>
     <use style="stroke:#000000;" x="292.485559" xlink:href="#m088de28e0f" y="190.38546"/>
     <use style="stroke:#000000;" x="293.707903" xlink:href="#m088de28e0f" y="193.143776"/>
     <use style="stroke:#000000;" x="294.930247" xlink:href="#m088de28e0f" y="190.089466"/>
     <use style="stroke:#000000;" x="296.152591" xlink:href="#m088de28e0f" y="193.64751"/>
     <use style="stroke:#000000;" x="297.374935" xlink:href="#m088de28e0f" y="190.454028"/>
     <use style="stroke:#000000;" x="298.597279" xlink:href="#m088de28e0f" y="190.443845"/>
     <use style="stroke:#000000;" x="299.819623" xlink:href="#m088de28e0f" y="193.325039"/>
     <use style="stroke:#000000;" x="301.041967" xlink:href="#m088de28e0f" y="193.089465"/>
     <use style="stroke:#000000;" x="302.264311" xlink:href="#m088de28e0f" y="195.729655"/>
     <use style="stroke:#000000;" x="303.486655" xlink:href="#m088de28e0f" y="190.480505"/>
     <use style="stroke:#000000;" x="304.708998" xlink:href="#m088de28e0f" y="189.925175"/>
     <use style="stroke:#000000;" x="305.931342" xlink:href="#m088de28e0f" y="192.860002"/>
     <use style="stroke:#000000;" x="307.153686" xlink:href="#m088de28e0f" y="194.286342"/>
     <use style="stroke:#000000;" x="308.37603" xlink:href="#m088de28e0f" y="193.738481"/>
     <use style="stroke:#000000;" x="309.598374" xlink:href="#m088de28e0f" y="190.609493"/>
     <use style="stroke:#000000;" x="310.820718" xlink:href="#m088de28e0f" y="193.278875"/>
     <use style="stroke:#000000;" x="312.043062" xlink:href="#m088de28e0f" y="195.826056"/>
     <use style="stroke:#000000;" x="313.265406" xlink:href="#m088de28e0f" y="193.491366"/>
     <use style="stroke:#000000;" x="314.48775" xlink:href="#m088de28e0f" y="193.794828"/>
     <use style="stroke:#000000;" x="315.710094" xlink:href="#m088de28e0f" y="196.817231"/>
     <use style="stroke:#000000;" x="316.932438" xlink:href="#m088de28e0f" y="194.868827"/>
     <use style="stroke:#000000;" x="318.154782" xlink:href="#m088de28e0f" y="194.634611"/>
     <use style="stroke:#000000;" x="319.377126" xlink:href="#m088de28e0f" y="190.252399"/>
     <use style="stroke:#000000;" x="320.599469" xlink:href="#m088de28e0f" y="194.213022"/>
     <use style="stroke:#000000;" x="321.821813" xlink:href="#m088de28e0f" y="191.115263"/>
     <use style="stroke:#000000;" x="323.044157" xlink:href="#m088de28e0f" y="191.147171"/>
     <use style="stroke:#000000;" x="324.266501" xlink:href="#m088de28e0f" y="190.546357"/>
     <use style="stroke:#000000;" x="325.488845" xlink:href="#m088de28e0f" y="194.51309"/>
     <use style="stroke:#000000;" x="326.711189" xlink:href="#m088de28e0f" y="191.215739"/>
     <use style="stroke:#000000;" x="327.933533" xlink:href="#m088de28e0f" y="190.868828"/>
     <use style="stroke:#000000;" x="329.155877" xlink:href="#m088de28e0f" y="194.492723"/>
     <use style="stroke:#000000;" x="330.378221" xlink:href="#m088de28e0f" y="193.980164"/>
     <use style="stroke:#000000;" x="331.600565" xlink:href="#m088de28e0f" y="191.443166"/>
     <use style="stroke:#000000;" x="332.822909" xlink:href="#m088de28e0f" y="191.991706"/>
     <use style="stroke:#000000;" x="334.045253" xlink:href="#m088de28e0f" y="197.004603"/>
     <use style="stroke:#000000;" x="335.267597" xlink:href="#m088de28e0f" y="197.035832"/>
     <use style="stroke:#000000;" x="336.48994" xlink:href="#m088de28e0f" y="197.308745"/>
     <use style="stroke:#000000;" x="337.712284" xlink:href="#m088de28e0f" y="193.908202"/>
     <use style="stroke:#000000;" x="338.934628" xlink:href="#m088de28e0f" y="191.6414"/>
     <use style="stroke:#000000;" x="340.156972" xlink:href="#m088de28e0f" y="194.661087"/>
     <use style="stroke:#000000;" x="341.379316" xlink:href="#m088de28e0f" y="193.785324"/>
     <use style="stroke:#000000;" x="342.60166" xlink:href="#m088de28e0f" y="194.999173"/>
     <use style="stroke:#000000;" x="343.824004" xlink:href="#m088de28e0f" y="197.319607"/>
     <use style="stroke:#000000;" x="345.046348" xlink:href="#m088de28e0f" y="190.793471"/>
     <use style="stroke:#000000;" x="346.268692" xlink:href="#m088de28e0f" y="195.771746"/>
     <use style="stroke:#000000;" x="347.491036" xlink:href="#m088de28e0f" y="197.007998"/>
     <use style="stroke:#000000;" x="348.71338" xlink:href="#m088de28e0f" y="193.741875"/>
     <use style="stroke:#000000;" x="349.935724" xlink:href="#m088de28e0f" y="193.856607"/>
     <use style="stroke:#000000;" x="351.158067" xlink:href="#m088de28e0f" y="191.427551"/>
     <use style="stroke:#000000;" x="352.380411" xlink:href="#m088de28e0f" y="195.215059"/>
     <use style="stroke:#000000;" x="353.602755" xlink:href="#m088de28e0f" y="191.402432"/>
     <use style="stroke:#000000;" x="354.825099" xlink:href="#m088de28e0f" y="195.260544"/>
     <use style="stroke:#000000;" x="356.047443" xlink:href="#m088de28e0f" y="195.318928"/>
    </g>
   </g>
   <g id="patch_3">
    <path d="M 36.465625 228.781649 
L 36.465625 11.341649 
" style="fill:none;stroke:#000000;stroke-linecap:square;stroke-linejoin:miter;stroke-width:0.8;"/>
   </g>
   <g id="patch_4">
    <path d="M 371.265625 228.781649 
L 371.265625 11.341649 
" style="fill:none;stroke:#000000;stroke-linecap:square;stroke-linejoin:miter;stroke-width:0.8;"/>
   </g>
   <g id="patch_5">
    <path d="M 36.465625 228.781649 
L 371.265625 228.781649 
" style="fill:none;stroke:#000000;stroke-linecap:square;stroke-linejoin:miter;stroke-width:0.8;"/>
   </g>
   <g id="patch_6">
    <path d="M 36.465625 11.341649 
L 371.265625 11.341649 
" style="fill:none;stroke:#000000;stroke-linecap:square;stroke-linejoin:miter;stroke-width:0.8;"/>
   </g>
  </g>
 </g>
 <defs>
  <clipPath id="p0b5f83de7b">
   <rect height="217.44" width="334.8" x="36.465625" y="11.341649"/>
  </clipPath>
 </defs>
</svg>
