<?xml version="1.0" encoding="utf-8" standalone="no"?>
<!DOCTYPE svg PUBLIC "-//W3C//DTD SVG 1.1//EN"
  "http://www.w3.org/Graphics/SVG/1.1/DTD/svg11.dtd">
<!-- Created with matplotlib (http://matplotlib.org/) -->
<svg height="252.018125pt" version="1.1" viewBox="0 0 381.965625 252.018125" width="381.965625pt" xmlns="http://www.w3.org/2000/svg" xmlns:xlink="http://www.w3.org/1999/xlink">
 <defs>
  <style type="text/css">
*{stroke-linecap:butt;stroke-linejoin:round;}
  </style>
 </defs>
 <g id="figure_1">
  <g id="patch_1">
   <path d="M 0 252.018125 
L 381.965625 252.018125 
L 381.965625 0 
L 0 0 
z
" style="fill:none;"/>
  </g>
  <g id="axes_1">
   <g id="patch_2">
    <path d="M 36.465625 228.14 
L 371.265625 228.14 
L 371.265625 10.7 
L 36.465625 10.7 
z
" style="fill:#ffffff;"/>
   </g>
   <g id="matplotlib.axis_1">
    <g id="xtick_1">
     <g id="line2d_1">
      <defs>
       <path d="M 0 0 
L 0 3.5 
" id="me0d4fd5a3e" style="stroke:#000000;stroke-width:0.8;"/>
      </defs>
      <g>
       <use style="stroke:#000000;stroke-width:0.8;" x="51.683807" xlink:href="#me0d4fd5a3e" y="228.14"/>
      </g>
     </g>
     <g id="text_1">
      <!-- 0 -->
      <defs>
       <path d="M 31.78125 66.40625 
Q 24.171875 66.40625 20.328125 58.90625 
Q 16.5 51.421875 16.5 36.375 
Q 16.5 21.390625 20.328125 13.890625 
Q 24.171875 6.390625 31.78125 6.390625 
Q 39.453125 6.390625 43.28125 13.890625 
Q 47.125 21.390625 47.125 36.375 
Q 47.125 51.421875 43.28125 58.90625 
Q 39.453125 66.40625 31.78125 66.40625 
z
M 31.78125 74.21875 
Q 44.046875 74.21875 50.515625 64.515625 
Q 56.984375 54.828125 56.984375 36.375 
Q 56.984375 17.96875 50.515625 8.265625 
Q 44.046875 -1.421875 31.78125 -1.421875 
Q 19.53125 -1.421875 13.0625 8.265625 
Q 6.59375 17.96875 6.59375 36.375 
Q 6.59375 54.828125 13.0625 64.515625 
Q 19.53125 74.21875 31.78125 74.21875 
z
" id="DejaVuSans-30"/>
      </defs>
      <g transform="translate(48.502557 242.738437)scale(0.1 -0.1)">
       <use xlink:href="#DejaVuSans-30"/>
      </g>
     </g>
    </g>
    <g id="xtick_2">
     <g id="line2d_2">
      <g>
       <use style="stroke:#000000;stroke-width:0.8;" x="112.801003" xlink:href="#me0d4fd5a3e" y="228.14"/>
      </g>
     </g>
     <g id="text_2">
      <!-- 1000 -->
      <defs>
       <path d="M 12.40625 8.296875 
L 28.515625 8.296875 
L 28.515625 63.921875 
L 10.984375 60.40625 
L 10.984375 69.390625 
L 28.421875 72.90625 
L 38.28125 72.90625 
L 38.28125 8.296875 
L 54.390625 8.296875 
L 54.390625 0 
L 12.40625 0 
z
" id="DejaVuSans-31"/>
      </defs>
      <g transform="translate(100.076003 242.738437)scale(0.1 -0.1)">
       <use xlink:href="#DejaVuSans-31"/>
       <use x="63.623047" xlink:href="#DejaVuSans-30"/>
       <use x="127.246094" xlink:href="#DejaVuSans-30"/>
       <use x="190.869141" xlink:href="#DejaVuSans-30"/>
      </g>
     </g>
    </g>
    <g id="xtick_3">
     <g id="line2d_3">
      <g>
       <use style="stroke:#000000;stroke-width:0.8;" x="173.918199" xlink:href="#me0d4fd5a3e" y="228.14"/>
      </g>
     </g>
     <g id="text_3">
      <!-- 2000 -->
      <defs>
       <path d="M 19.1875 8.296875 
L 53.609375 8.296875 
L 53.609375 0 
L 7.328125 0 
L 7.328125 8.296875 
Q 12.9375 14.109375 22.625 23.890625 
Q 32.328125 33.6875 34.8125 36.53125 
Q 39.546875 41.84375 41.421875 45.53125 
Q 43.3125 49.21875 43.3125 52.78125 
Q 43.3125 58.59375 39.234375 62.25 
Q 35.15625 65.921875 28.609375 65.921875 
Q 23.96875 65.921875 18.8125 64.3125 
Q 13.671875 62.703125 7.8125 59.421875 
L 7.8125 69.390625 
Q 13.765625 71.78125 18.9375 73 
Q 24.125 74.21875 28.421875 74.21875 
Q 39.75 74.21875 46.484375 68.546875 
Q 53.21875 62.890625 53.21875 53.421875 
Q 53.21875 48.921875 51.53125 44.890625 
Q 49.859375 40.875 45.40625 35.40625 
Q 44.1875 33.984375 37.640625 27.21875 
Q 31.109375 20.453125 19.1875 8.296875 
z
" id="DejaVuSans-32"/>
      </defs>
      <g transform="translate(161.193199 242.738437)scale(0.1 -0.1)">
       <use xlink:href="#DejaVuSans-32"/>
       <use x="63.623047" xlink:href="#DejaVuSans-30"/>
       <use x="127.246094" xlink:href="#DejaVuSans-30"/>
       <use x="190.869141" xlink:href="#DejaVuSans-30"/>
      </g>
     </g>
    </g>
    <g id="xtick_4">
     <g id="line2d_4">
      <g>
       <use style="stroke:#000000;stroke-width:0.8;" x="235.035395" xlink:href="#me0d4fd5a3e" y="228.14"/>
      </g>
     </g>
     <g id="text_4">
      <!-- 3000 -->
      <defs>
       <path d="M 40.578125 39.3125 
Q 47.65625 37.796875 51.625 33 
Q 55.609375 28.21875 55.609375 21.1875 
Q 55.609375 10.40625 48.1875 4.484375 
Q 40.765625 -1.421875 27.09375 -1.421875 
Q 22.515625 -1.421875 17.65625 -0.515625 
Q 12.796875 0.390625 7.625 2.203125 
L 7.625 11.71875 
Q 11.71875 9.328125 16.59375 8.109375 
Q 21.484375 6.890625 26.8125 6.890625 
Q 36.078125 6.890625 40.9375 10.546875 
Q 45.796875 14.203125 45.796875 21.1875 
Q 45.796875 27.640625 41.28125 31.265625 
Q 36.765625 34.90625 28.71875 34.90625 
L 20.21875 34.90625 
L 20.21875 43.015625 
L 29.109375 43.015625 
Q 36.375 43.015625 40.234375 45.921875 
Q 44.09375 48.828125 44.09375 54.296875 
Q 44.09375 59.90625 40.109375 62.90625 
Q 36.140625 65.921875 28.71875 65.921875 
Q 24.65625 65.921875 20.015625 65.03125 
Q 15.375 64.15625 9.8125 62.3125 
L 9.8125 71.09375 
Q 15.4375 72.65625 20.34375 73.4375 
Q 25.25 74.21875 29.59375 74.21875 
Q 40.828125 74.21875 47.359375 69.109375 
Q 53.90625 64.015625 53.90625 55.328125 
Q 53.90625 49.265625 50.4375 45.09375 
Q 46.96875 40.921875 40.578125 39.3125 
z
" id="DejaVuSans-33"/>
      </defs>
      <g transform="translate(222.310395 242.738437)scale(0.1 -0.1)">
       <use xlink:href="#DejaVuSans-33"/>
       <use x="63.623047" xlink:href="#DejaVuSans-30"/>
       <use x="127.246094" xlink:href="#DejaVuSans-30"/>
       <use x="190.869141" xlink:href="#DejaVuSans-30"/>
      </g>
     </g>
    </g>
    <g id="xtick_5">
     <g id="line2d_5">
      <g>
       <use style="stroke:#000000;stroke-width:0.8;" x="296.152591" xlink:href="#me0d4fd5a3e" y="228.14"/>
      </g>
     </g>
     <g id="text_5">
      <!-- 4000 -->
      <defs>
       <path d="M 37.796875 64.3125 
L 12.890625 25.390625 
L 37.796875 25.390625 
z
M 35.203125 72.90625 
L 47.609375 72.90625 
L 47.609375 25.390625 
L 58.015625 25.390625 
L 58.015625 17.1875 
L 47.609375 17.1875 
L 47.609375 0 
L 37.796875 0 
L 37.796875 17.1875 
L 4.890625 17.1875 
L 4.890625 26.703125 
z
" id="DejaVuSans-34"/>
      </defs>
      <g transform="translate(283.427591 242.738437)scale(0.1 -0.1)">
       <use xlink:href="#DejaVuSans-34"/>
       <use x="63.623047" xlink:href="#DejaVuSans-30"/>
       <use x="127.246094" xlink:href="#DejaVuSans-30"/>
       <use x="190.869141" xlink:href="#DejaVuSans-30"/>
      </g>
     </g>
    </g>
    <g id="xtick_6">
     <g id="line2d_6">
      <g>
       <use style="stroke:#000000;stroke-width:0.8;" x="357.269787" xlink:href="#me0d4fd5a3e" y="228.14"/>
      </g>
     </g>
     <g id="text_6">
      <!-- 5000 -->
      <defs>
       <path d="M 10.796875 72.90625 
L 49.515625 72.90625 
L 49.515625 64.59375 
L 19.828125 64.59375 
L 19.828125 46.734375 
Q 21.96875 47.46875 24.109375 47.828125 
Q 26.265625 48.1875 28.421875 48.1875 
Q 40.625 48.1875 47.75 41.5 
Q 54.890625 34.8125 54.890625 23.390625 
Q 54.890625 11.625 47.5625 5.09375 
Q 40.234375 -1.421875 26.90625 -1.421875 
Q 22.3125 -1.421875 17.546875 -0.640625 
Q 12.796875 0.140625 7.71875 1.703125 
L 7.71875 11.625 
Q 12.109375 9.234375 16.796875 8.0625 
Q 21.484375 6.890625 26.703125 6.890625 
Q 35.15625 6.890625 40.078125 11.328125 
Q 45.015625 15.765625 45.015625 23.390625 
Q 45.015625 31 40.078125 35.4375 
Q 35.15625 39.890625 26.703125 39.890625 
Q 22.75 39.890625 18.8125 39.015625 
Q 14.890625 38.140625 10.796875 36.28125 
z
" id="DejaVuSans-35"/>
      </defs>
      <g transform="translate(344.544787 242.738437)scale(0.1 -0.1)">
       <use xlink:href="#DejaVuSans-35"/>
       <use x="63.623047" xlink:href="#DejaVuSans-30"/>
       <use x="127.246094" xlink:href="#DejaVuSans-30"/>
       <use x="190.869141" xlink:href="#DejaVuSans-30"/>
      </g>
     </g>
    </g>
   </g>
   <g id="matplotlib.axis_2">
    <g id="ytick_1">
     <g id="line2d_7">
      <defs>
       <path d="M 0 0 
L -3.5 0 
" id="m699d00541f" style="stroke:#000000;stroke-width:0.8;"/>
      </defs>
      <g>
       <use style="stroke:#000000;stroke-width:0.8;" x="36.465625" xlink:href="#m699d00541f" y="218.274864"/>
      </g>
     </g>
     <g id="text_7">
      <!-- 0.00 -->
      <defs>
       <path d="M 10.6875 12.40625 
L 21 12.40625 
L 21 0 
L 10.6875 0 
z
" id="DejaVuSans-2e"/>
      </defs>
      <g transform="translate(7.2 222.074082)scale(0.1 -0.1)">
       <use xlink:href="#DejaVuSans-30"/>
       <use x="63.623047" xlink:href="#DejaVuSans-2e"/>
       <use x="95.410156" xlink:href="#DejaVuSans-30"/>
       <use x="159.033203" xlink:href="#DejaVuSans-30"/>
      </g>
     </g>
    </g>
    <g id="ytick_2">
     <g id="line2d_8">
      <g>
       <use style="stroke:#000000;stroke-width:0.8;" x="36.465625" xlink:href="#m699d00541f" y="193.932671"/>
      </g>
     </g>
     <g id="text_8">
      <!-- 0.05 -->
      <g transform="translate(7.2 197.731889)scale(0.1 -0.1)">
       <use xlink:href="#DejaVuSans-30"/>
       <use x="63.623047" xlink:href="#DejaVuSans-2e"/>
       <use x="95.410156" xlink:href="#DejaVuSans-30"/>
       <use x="159.033203" xlink:href="#DejaVuSans-35"/>
      </g>
     </g>
    </g>
    <g id="ytick_3">
     <g id="line2d_9">
      <g>
       <use style="stroke:#000000;stroke-width:0.8;" x="36.465625" xlink:href="#m699d00541f" y="169.590477"/>
      </g>
     </g>
     <g id="text_9">
      <!-- 0.10 -->
      <g transform="translate(7.2 173.389696)scale(0.1 -0.1)">
       <use xlink:href="#DejaVuSans-30"/>
       <use x="63.623047" xlink:href="#DejaVuSans-2e"/>
       <use x="95.410156" xlink:href="#DejaVuSans-31"/>
       <use x="159.033203" xlink:href="#DejaVuSans-30"/>
      </g>
     </g>
    </g>
    <g id="ytick_4">
     <g id="line2d_10">
      <g>
       <use style="stroke:#000000;stroke-width:0.8;" x="36.465625" xlink:href="#m699d00541f" y="145.248284"/>
      </g>
     </g>
     <g id="text_10">
      <!-- 0.15 -->
      <g transform="translate(7.2 149.047503)scale(0.1 -0.1)">
       <use xlink:href="#DejaVuSans-30"/>
       <use x="63.623047" xlink:href="#DejaVuSans-2e"/>
       <use x="95.410156" xlink:href="#DejaVuSans-31"/>
       <use x="159.033203" xlink:href="#DejaVuSans-35"/>
      </g>
     </g>
    </g>
    <g id="ytick_5">
     <g id="line2d_11">
      <g>
       <use style="stroke:#000000;stroke-width:0.8;" x="36.465625" xlink:href="#m699d00541f" y="120.906091"/>
      </g>
     </g>
     <g id="text_11">
      <!-- 0.20 -->
      <g transform="translate(7.2 124.70531)scale(0.1 -0.1)">
       <use xlink:href="#DejaVuSans-30"/>
       <use x="63.623047" xlink:href="#DejaVuSans-2e"/>
       <use x="95.410156" xlink:href="#DejaVuSans-32"/>
       <use x="159.033203" xlink:href="#DejaVuSans-30"/>
      </g>
     </g>
    </g>
    <g id="ytick_6">
     <g id="line2d_12">
      <g>
       <use style="stroke:#000000;stroke-width:0.8;" x="36.465625" xlink:href="#m699d00541f" y="96.563898"/>
      </g>
     </g>
     <g id="text_12">
      <!-- 0.25 -->
      <g transform="translate(7.2 100.363116)scale(0.1 -0.1)">
       <use xlink:href="#DejaVuSans-30"/>
       <use x="63.623047" xlink:href="#DejaVuSans-2e"/>
       <use x="95.410156" xlink:href="#DejaVuSans-32"/>
       <use x="159.033203" xlink:href="#DejaVuSans-35"/>
      </g>
     </g>
    </g>
    <g id="ytick_7">
     <g id="line2d_13">
      <g>
       <use style="stroke:#000000;stroke-width:0.8;" x="36.465625" xlink:href="#m699d00541f" y="72.221704"/>
      </g>
     </g>
     <g id="text_13">
      <!-- 0.30 -->
      <g transform="translate(7.2 76.020923)scale(0.1 -0.1)">
       <use xlink:href="#DejaVuSans-30"/>
       <use x="63.623047" xlink:href="#DejaVuSans-2e"/>
       <use x="95.410156" xlink:href="#DejaVuSans-33"/>
       <use x="159.033203" xlink:href="#DejaVuSans-30"/>
      </g>
     </g>
    </g>
    <g id="ytick_8">
     <g id="line2d_14">
      <g>
       <use style="stroke:#000000;stroke-width:0.8;" x="36.465625" xlink:href="#m699d00541f" y="47.879511"/>
      </g>
     </g>
     <g id="text_14">
      <!-- 0.35 -->
      <g transform="translate(7.2 51.67873)scale(0.1 -0.1)">
       <use xlink:href="#DejaVuSans-30"/>
       <use x="63.623047" xlink:href="#DejaVuSans-2e"/>
       <use x="95.410156" xlink:href="#DejaVuSans-33"/>
       <use x="159.033203" xlink:href="#DejaVuSans-35"/>
      </g>
     </g>
    </g>
    <g id="ytick_9">
     <g id="line2d_15">
      <g>
       <use style="stroke:#000000;stroke-width:0.8;" x="36.465625" xlink:href="#m699d00541f" y="23.537318"/>
      </g>
     </g>
     <g id="text_15">
      <!-- 0.40 -->
      <g transform="translate(7.2 27.336537)scale(0.1 -0.1)">
       <use xlink:href="#DejaVuSans-30"/>
       <use x="63.623047" xlink:href="#DejaVuSans-2e"/>
       <use x="95.410156" xlink:href="#DejaVuSans-34"/>
       <use x="159.033203" xlink:href="#DejaVuSans-30"/>
      </g>
     </g>
    </g>
   </g>
   <g id="line2d_16">
    <defs>
     <path d="M 0 1 
C 0.265203 1 0.51958 0.894634 0.707107 0.707107 
C 0.894634 0.51958 1 0.265203 1 0 
C 1 -0.265203 0.894634 -0.51958 0.707107 -0.707107 
C 0.51958 -0.894634 0.265203 -1 0 -1 
C -0.265203 -1 -0.51958 -0.894634 -0.707107 -0.707107 
C -0.894634 -0.51958 -1 -0.265203 -1 0 
C -1 0.265203 -0.894634 0.51958 -0.707107 0.707107 
C -0.51958 0.894634 -0.265203 1 0 1 
z
" id="m243ddd7792" style="stroke:#000000;"/>
    </defs>
    <g clip-path="url(#p241ddb0363)">
     <use style="stroke:#000000;" x="51.683807" xlink:href="#m243ddd7792" y="20.583636"/>
     <use style="stroke:#000000;" x="52.906151" xlink:href="#m243ddd7792" y="33.016168"/>
     <use style="stroke:#000000;" x="54.128495" xlink:href="#m243ddd7792" y="33.65442"/>
     <use style="stroke:#000000;" x="55.350839" xlink:href="#m243ddd7792" y="45.325528"/>
     <use style="stroke:#000000;" x="56.573183" xlink:href="#m243ddd7792" y="92.169645"/>
     <use style="stroke:#000000;" x="57.795526" xlink:href="#m243ddd7792" y="161.299039"/>
     <use style="stroke:#000000;" x="59.01787" xlink:href="#m243ddd7792" y="175.368827"/>
     <use style="stroke:#000000;" x="60.240214" xlink:href="#m243ddd7792" y="87.607918"/>
     <use style="stroke:#000000;" x="61.462558" xlink:href="#m243ddd7792" y="184.26882"/>
     <use style="stroke:#000000;" x="62.684902" xlink:href="#m243ddd7792" y="215.089444"/>
     <use style="stroke:#000000;" x="63.907246" xlink:href="#m243ddd7792" y="215.444353"/>
     <use style="stroke:#000000;" x="65.12959" xlink:href="#m243ddd7792" y="189.847077"/>
     <use style="stroke:#000000;" x="66.351934" xlink:href="#m243ddd7792" y="171.832393"/>
     <use style="stroke:#000000;" x="67.574278" xlink:href="#m243ddd7792" y="180.144279"/>
     <use style="stroke:#000000;" x="68.796622" xlink:href="#m243ddd7792" y="216.132264"/>
     <use style="stroke:#000000;" x="70.018966" xlink:href="#m243ddd7792" y="211.167917"/>
     <use style="stroke:#000000;" x="71.24131" xlink:href="#m243ddd7792" y="204.768841"/>
     <use style="stroke:#000000;" x="72.463653" xlink:href="#m243ddd7792" y="206.894888"/>
     <use style="stroke:#000000;" x="73.685997" xlink:href="#m243ddd7792" y="213.234569"/>
     <use style="stroke:#000000;" x="74.908341" xlink:href="#m243ddd7792" y="205.324817"/>
     <use style="stroke:#000000;" x="76.130685" xlink:href="#m243ddd7792" y="214.179533"/>
     <use style="stroke:#000000;" x="77.353029" xlink:href="#m243ddd7792" y="211.838788"/>
     <use style="stroke:#000000;" x="78.575373" xlink:href="#m243ddd7792" y="212.615304"/>
     <use style="stroke:#000000;" x="79.797717" xlink:href="#m243ddd7792" y="213.269622"/>
     <use style="stroke:#000000;" x="81.020061" xlink:href="#m243ddd7792" y="215.372301"/>
     <use style="stroke:#000000;" x="82.242405" xlink:href="#m243ddd7792" y="215.669762"/>
     <use style="stroke:#000000;" x="83.464749" xlink:href="#m243ddd7792" y="217.119583"/>
     <use style="stroke:#000000;" x="84.687093" xlink:href="#m243ddd7792" y="215.98329"/>
     <use style="stroke:#000000;" x="85.909437" xlink:href="#m243ddd7792" y="214.17077"/>
     <use style="stroke:#000000;" x="87.131781" xlink:href="#m243ddd7792" y="215.532959"/>
     <use style="stroke:#000000;" x="88.354124" xlink:href="#m243ddd7792" y="215.760802"/>
     <use style="stroke:#000000;" x="89.576468" xlink:href="#m243ddd7792" y="217.371281"/>
     <use style="stroke:#000000;" x="90.798812" xlink:href="#m243ddd7792" y="216.656108"/>
     <use style="stroke:#000000;" x="92.021156" xlink:href="#m243ddd7792" y="217.453071"/>
     <use style="stroke:#000000;" x="93.2435" xlink:href="#m243ddd7792" y="216.844516"/>
     <use style="stroke:#000000;" x="94.465844" xlink:href="#m243ddd7792" y="216.551436"/>
     <use style="stroke:#000000;" x="95.688188" xlink:href="#m243ddd7792" y="216.663897"/>
     <use style="stroke:#000000;" x="96.910532" xlink:href="#m243ddd7792" y="217.592795"/>
     <use style="stroke:#000000;" x="98.132876" xlink:href="#m243ddd7792" y="217.126886"/>
     <use style="stroke:#000000;" x="99.35522" xlink:href="#m243ddd7792" y="217.653651"/>
     <use style="stroke:#000000;" x="100.577564" xlink:href="#m243ddd7792" y="216.805569"/>
     <use style="stroke:#000000;" x="101.799908" xlink:href="#m243ddd7792" y="216.794372"/>
     <use style="stroke:#000000;" x="103.022252" xlink:href="#m243ddd7792" y="216.950648"/>
     <use style="stroke:#000000;" x="104.244595" xlink:href="#m243ddd7792" y="217.017833"/>
     <use style="stroke:#000000;" x="105.466939" xlink:href="#m243ddd7792" y="217.267584"/>
     <use style="stroke:#000000;" x="106.689283" xlink:href="#m243ddd7792" y="217.493966"/>
     <use style="stroke:#000000;" x="107.911627" xlink:href="#m243ddd7792" y="217.809441"/>
     <use style="stroke:#000000;" x="109.133971" xlink:href="#m243ddd7792" y="217.277807"/>
     <use style="stroke:#000000;" x="110.356315" xlink:href="#m243ddd7792" y="217.602532"/>
     <use style="stroke:#000000;" x="111.578659" xlink:href="#m243ddd7792" y="217.860073"/>
     <use style="stroke:#000000;" x="112.801003" xlink:href="#m243ddd7792" y="217.409255"/>
     <use style="stroke:#000000;" x="114.023347" xlink:href="#m243ddd7792" y="217.553361"/>
     <use style="stroke:#000000;" x="115.245691" xlink:href="#m243ddd7792" y="217.717427"/>
     <use style="stroke:#000000;" x="116.468035" xlink:href="#m243ddd7792" y="217.613243"/>
     <use style="stroke:#000000;" x="117.690379" xlink:href="#m243ddd7792" y="217.556769"/>
     <use style="stroke:#000000;" x="118.912722" xlink:href="#m243ddd7792" y="217.590848"/>
     <use style="stroke:#000000;" x="120.135066" xlink:href="#m243ddd7792" y="217.951113"/>
     <use style="stroke:#000000;" x="121.35741" xlink:href="#m243ddd7792" y="217.711099"/>
     <use style="stroke:#000000;" x="122.579754" xlink:href="#m243ddd7792" y="217.835244"/>
     <use style="stroke:#000000;" x="123.802098" xlink:href="#m243ddd7792" y="217.98081"/>
     <use style="stroke:#000000;" x="125.024442" xlink:href="#m243ddd7792" y="217.714993"/>
     <use style="stroke:#000000;" x="126.246786" xlink:href="#m243ddd7792" y="217.788994"/>
     <use style="stroke:#000000;" x="127.46913" xlink:href="#m243ddd7792" y="217.806033"/>
     <use style="stroke:#000000;" x="128.691474" xlink:href="#m243ddd7792" y="217.780717"/>
     <use style="stroke:#000000;" x="129.913818" xlink:href="#m243ddd7792" y="218.022192"/>
     <use style="stroke:#000000;" x="131.136162" xlink:href="#m243ddd7792" y="217.821125"/>
     <use style="stroke:#000000;" x="132.358506" xlink:href="#m243ddd7792" y="217.95306"/>
     <use style="stroke:#000000;" x="133.58085" xlink:href="#m243ddd7792" y="218.042639"/>
     <use style="stroke:#000000;" x="134.803193" xlink:href="#m243ddd7792" y="217.854231"/>
     <use style="stroke:#000000;" x="136.025537" xlink:href="#m243ddd7792" y="218.055297"/>
     <use style="stroke:#000000;" x="137.247881" xlink:href="#m243ddd7792" y="217.9886"/>
     <use style="stroke:#000000;" x="138.470225" xlink:href="#m243ddd7792" y="217.907297"/>
     <use style="stroke:#000000;" x="139.692569" xlink:href="#m243ddd7792" y="217.919955"/>
     <use style="stroke:#000000;" x="140.914913" xlink:href="#m243ddd7792" y="218.011968"/>
     <use style="stroke:#000000;" x="142.137257" xlink:href="#m243ddd7792" y="218.08256"/>
     <use style="stroke:#000000;" x="143.359601" xlink:href="#m243ddd7792" y="217.950139"/>
     <use style="stroke:#000000;" x="144.581945" xlink:href="#m243ddd7792" y="217.972047"/>
     <use style="stroke:#000000;" x="145.804289" xlink:href="#m243ddd7792" y="218.043613"/>
     <use style="stroke:#000000;" x="147.026633" xlink:href="#m243ddd7792" y="217.988113"/>
     <use style="stroke:#000000;" x="148.248977" xlink:href="#m243ddd7792" y="218.104955"/>
     <use style="stroke:#000000;" x="149.471321" xlink:href="#m243ddd7792" y="218.109337"/>
     <use style="stroke:#000000;" x="150.693664" xlink:href="#m243ddd7792" y="218.010507"/>
     <use style="stroke:#000000;" x="151.916008" xlink:href="#m243ddd7792" y="218.003205"/>
     <use style="stroke:#000000;" x="153.138352" xlink:href="#m243ddd7792" y="218.023652"/>
     <use style="stroke:#000000;" x="154.360696" xlink:href="#m243ddd7792" y="218.123942"/>
     <use style="stroke:#000000;" x="155.58304" xlink:href="#m243ddd7792" y="218.035823"/>
     <use style="stroke:#000000;" x="156.805384" xlink:href="#m243ddd7792" y="218.092297"/>
     <use style="stroke:#000000;" x="158.027728" xlink:href="#m243ddd7792" y="218.096192"/>
     <use style="stroke:#000000;" x="159.250072" xlink:href="#m243ddd7792" y="218.1366"/>
     <use style="stroke:#000000;" x="160.472416" xlink:href="#m243ddd7792" y="218.055297"/>
     <use style="stroke:#000000;" x="161.69476" xlink:href="#m243ddd7792" y="218.057244"/>
     <use style="stroke:#000000;" x="162.917104" xlink:href="#m243ddd7792" y="218.145363"/>
     <use style="stroke:#000000;" x="164.139448" xlink:href="#m243ddd7792" y="218.147797"/>
     <use style="stroke:#000000;" x="165.361791" xlink:href="#m243ddd7792" y="218.121021"/>
     <use style="stroke:#000000;" x="166.584135" xlink:href="#m243ddd7792" y="218.079152"/>
     <use style="stroke:#000000;" x="167.806479" xlink:href="#m243ddd7792" y="218.155587"/>
     <use style="stroke:#000000;" x="169.028823" xlink:href="#m243ddd7792" y="218.158021"/>
     <use style="stroke:#000000;" x="170.251167" xlink:href="#m243ddd7792" y="218.160455"/>
     <use style="stroke:#000000;" x="171.473511" xlink:href="#m243ddd7792" y="218.135626"/>
     <use style="stroke:#000000;" x="172.695855" xlink:href="#m243ddd7792" y="218.10106"/>
     <use style="stroke:#000000;" x="173.918199" xlink:href="#m243ddd7792" y="218.106416"/>
     <use style="stroke:#000000;" x="175.140543" xlink:href="#m243ddd7792" y="218.143903"/>
     <use style="stroke:#000000;" x="176.362887" xlink:href="#m243ddd7792" y="218.109824"/>
     <use style="stroke:#000000;" x="177.585231" xlink:href="#m243ddd7792" y="218.114692"/>
     <use style="stroke:#000000;" x="178.807575" xlink:href="#m243ddd7792" y="218.174574"/>
     <use style="stroke:#000000;" x="180.029919" xlink:href="#m243ddd7792" y="218.121021"/>
     <use style="stroke:#000000;" x="181.252262" xlink:href="#m243ddd7792" y="218.156561"/>
     <use style="stroke:#000000;" x="182.474606" xlink:href="#m243ddd7792" y="218.159969"/>
     <use style="stroke:#000000;" x="183.69695" xlink:href="#m243ddd7792" y="218.130271"/>
     <use style="stroke:#000000;" x="184.919294" xlink:href="#m243ddd7792" y="218.13514"/>
     <use style="stroke:#000000;" x="186.141638" xlink:href="#m243ddd7792" y="218.165324"/>
     <use style="stroke:#000000;" x="187.363982" xlink:href="#m243ddd7792" y="218.139034"/>
     <use style="stroke:#000000;" x="188.586326" xlink:href="#m243ddd7792" y="218.143416"/>
     <use style="stroke:#000000;" x="189.80867" xlink:href="#m243ddd7792" y="218.142929"/>
     <use style="stroke:#000000;" x="191.031014" xlink:href="#m243ddd7792" y="218.174087"/>
     <use style="stroke:#000000;" x="192.253358" xlink:href="#m243ddd7792" y="218.147311"/>
     <use style="stroke:#000000;" x="193.475702" xlink:href="#m243ddd7792" y="218.193561"/>
     <use style="stroke:#000000;" x="194.698046" xlink:href="#m243ddd7792" y="218.179442"/>
     <use style="stroke:#000000;" x="195.92039" xlink:href="#m243ddd7792" y="218.154126"/>
     <use style="stroke:#000000;" x="197.142733" xlink:href="#m243ddd7792" y="218.158021"/>
     <use style="stroke:#000000;" x="198.365077" xlink:href="#m243ddd7792" y="218.198916"/>
     <use style="stroke:#000000;" x="199.587421" xlink:href="#m243ddd7792" y="218.19989"/>
     <use style="stroke:#000000;" x="200.809765" xlink:href="#m243ddd7792" y="218.16435"/>
     <use style="stroke:#000000;" x="202.032109" xlink:href="#m243ddd7792" y="218.167271"/>
     <use style="stroke:#000000;" x="203.254453" xlink:href="#m243ddd7792" y="218.165811"/>
     <use style="stroke:#000000;" x="204.476797" xlink:href="#m243ddd7792" y="218.170192"/>
     <use style="stroke:#000000;" x="205.699141" xlink:href="#m243ddd7792" y="218.169219"/>
     <use style="stroke:#000000;" x="206.921485" xlink:href="#m243ddd7792" y="218.206706"/>
     <use style="stroke:#000000;" x="208.143829" xlink:href="#m243ddd7792" y="218.195995"/>
     <use style="stroke:#000000;" x="209.366173" xlink:href="#m243ddd7792" y="218.196969"/>
     <use style="stroke:#000000;" x="210.588517" xlink:href="#m243ddd7792" y="218.197942"/>
     <use style="stroke:#000000;" x="211.81086" xlink:href="#m243ddd7792" y="218.198916"/>
     <use style="stroke:#000000;" x="213.033204" xlink:href="#m243ddd7792" y="218.183337"/>
     <use style="stroke:#000000;" x="214.255548" xlink:href="#m243ddd7792" y="218.180416"/>
     <use style="stroke:#000000;" x="215.477892" xlink:href="#m243ddd7792" y="218.181877"/>
     <use style="stroke:#000000;" x="216.700236" xlink:href="#m243ddd7792" y="218.214008"/>
     <use style="stroke:#000000;" x="217.92258" xlink:href="#m243ddd7792" y="218.188205"/>
     <use style="stroke:#000000;" x="219.144924" xlink:href="#m243ddd7792" y="218.215956"/>
     <use style="stroke:#000000;" x="220.367268" xlink:href="#m243ddd7792" y="218.187232"/>
     <use style="stroke:#000000;" x="221.589612" xlink:href="#m243ddd7792" y="218.208653"/>
     <use style="stroke:#000000;" x="222.811956" xlink:href="#m243ddd7792" y="218.209627"/>
     <use style="stroke:#000000;" x="224.0343" xlink:href="#m243ddd7792" y="218.218877"/>
     <use style="stroke:#000000;" x="225.256644" xlink:href="#m243ddd7792" y="218.195995"/>
     <use style="stroke:#000000;" x="226.478988" xlink:href="#m243ddd7792" y="218.220337"/>
     <use style="stroke:#000000;" x="227.701331" xlink:href="#m243ddd7792" y="218.213035"/>
     <use style="stroke:#000000;" x="228.923675" xlink:href="#m243ddd7792" y="218.195508"/>
     <use style="stroke:#000000;" x="230.146019" xlink:href="#m243ddd7792" y="218.214495"/>
     <use style="stroke:#000000;" x="231.368363" xlink:href="#m243ddd7792" y="218.197942"/>
     <use style="stroke:#000000;" x="232.590707" xlink:href="#m243ddd7792" y="218.216442"/>
     <use style="stroke:#000000;" x="233.813051" xlink:href="#m243ddd7792" y="218.203784"/>
     <use style="stroke:#000000;" x="235.035395" xlink:href="#m243ddd7792" y="218.205245"/>
     <use style="stroke:#000000;" x="236.257739" xlink:href="#m243ddd7792" y="218.226179"/>
     <use style="stroke:#000000;" x="237.480083" xlink:href="#m243ddd7792" y="218.21985"/>
     <use style="stroke:#000000;" x="238.702427" xlink:href="#m243ddd7792" y="218.203784"/>
     <use style="stroke:#000000;" x="239.924771" xlink:href="#m243ddd7792" y="218.220824"/>
     <use style="stroke:#000000;" x="241.147115" xlink:href="#m243ddd7792" y="218.205732"/>
     <use style="stroke:#000000;" x="242.369459" xlink:href="#m243ddd7792" y="218.222285"/>
     <use style="stroke:#000000;" x="243.591802" xlink:href="#m243ddd7792" y="218.229587"/>
     <use style="stroke:#000000;" x="244.814146" xlink:href="#m243ddd7792" y="218.230074"/>
     <use style="stroke:#000000;" x="246.03649" xlink:href="#m243ddd7792" y="218.213035"/>
     <use style="stroke:#000000;" x="247.258834" xlink:href="#m243ddd7792" y="218.210113"/>
     <use style="stroke:#000000;" x="248.481178" xlink:href="#m243ddd7792" y="218.226179"/>
     <use style="stroke:#000000;" x="249.703522" xlink:href="#m243ddd7792" y="218.226666"/>
     <use style="stroke:#000000;" x="250.925866" xlink:href="#m243ddd7792" y="218.232995"/>
     <use style="stroke:#000000;" x="252.14821" xlink:href="#m243ddd7792" y="218.22764"/>
     <use style="stroke:#000000;" x="253.370554" xlink:href="#m243ddd7792" y="218.217903"/>
     <use style="stroke:#000000;" x="254.592898" xlink:href="#m243ddd7792" y="218.214982"/>
     <use style="stroke:#000000;" x="255.815242" xlink:href="#m243ddd7792" y="218.229587"/>
     <use style="stroke:#000000;" x="257.037586" xlink:href="#m243ddd7792" y="218.229587"/>
     <use style="stroke:#000000;" x="258.259929" xlink:href="#m243ddd7792" y="218.230074"/>
     <use style="stroke:#000000;" x="259.482273" xlink:href="#m243ddd7792" y="218.217416"/>
     <use style="stroke:#000000;" x="260.704617" xlink:href="#m243ddd7792" y="218.231535"/>
     <use style="stroke:#000000;" x="261.926961" xlink:href="#m243ddd7792" y="218.218877"/>
     <use style="stroke:#000000;" x="263.149305" xlink:href="#m243ddd7792" y="218.237377"/>
     <use style="stroke:#000000;" x="264.371649" xlink:href="#m243ddd7792" y="218.237864"/>
     <use style="stroke:#000000;" x="265.593993" xlink:href="#m243ddd7792" y="218.224719"/>
     <use style="stroke:#000000;" x="266.816337" xlink:href="#m243ddd7792" y="218.221311"/>
     <use style="stroke:#000000;" x="268.038681" xlink:href="#m243ddd7792" y="218.222285"/>
     <use style="stroke:#000000;" x="269.261025" xlink:href="#m243ddd7792" y="218.239324"/>
     <use style="stroke:#000000;" x="270.483369" xlink:href="#m243ddd7792" y="218.226666"/>
     <use style="stroke:#000000;" x="271.705713" xlink:href="#m243ddd7792" y="218.223745"/>
     <use style="stroke:#000000;" x="272.928057" xlink:href="#m243ddd7792" y="218.236403"/>
     <use style="stroke:#000000;" x="274.1504" xlink:href="#m243ddd7792" y="218.23689"/>
     <use style="stroke:#000000;" x="275.372744" xlink:href="#m243ddd7792" y="218.237377"/>
     <use style="stroke:#000000;" x="276.595088" xlink:href="#m243ddd7792" y="218.229587"/>
     <use style="stroke:#000000;" x="277.817432" xlink:href="#m243ddd7792" y="218.241758"/>
     <use style="stroke:#000000;" x="279.039776" xlink:href="#m243ddd7792" y="218.227153"/>
     <use style="stroke:#000000;" x="280.26212" xlink:href="#m243ddd7792" y="218.242732"/>
     <use style="stroke:#000000;" x="281.484464" xlink:href="#m243ddd7792" y="218.231535"/>
     <use style="stroke:#000000;" x="282.706808" xlink:href="#m243ddd7792" y="218.243219"/>
     <use style="stroke:#000000;" x="283.929152" xlink:href="#m243ddd7792" y="218.232995"/>
     <use style="stroke:#000000;" x="285.151496" xlink:href="#m243ddd7792" y="218.240298"/>
     <use style="stroke:#000000;" x="286.37384" xlink:href="#m243ddd7792" y="218.233482"/>
     <use style="stroke:#000000;" x="287.596184" xlink:href="#m243ddd7792" y="218.244679"/>
     <use style="stroke:#000000;" x="288.818528" xlink:href="#m243ddd7792" y="218.234943"/>
     <use style="stroke:#000000;" x="290.040871" xlink:href="#m243ddd7792" y="218.241758"/>
     <use style="stroke:#000000;" x="291.263215" xlink:href="#m243ddd7792" y="218.245653"/>
     <use style="stroke:#000000;" x="292.485559" xlink:href="#m243ddd7792" y="218.235429"/>
     <use style="stroke:#000000;" x="293.707903" xlink:href="#m243ddd7792" y="218.24614"/>
     <use style="stroke:#000000;" x="294.930247" xlink:href="#m243ddd7792" y="218.243219"/>
     <use style="stroke:#000000;" x="296.152591" xlink:href="#m243ddd7792" y="218.23689"/>
     <use style="stroke:#000000;" x="297.374935" xlink:href="#m243ddd7792" y="218.243706"/>
     <use style="stroke:#000000;" x="298.597279" xlink:href="#m243ddd7792" y="218.234456"/>
     <use style="stroke:#000000;" x="299.819623" xlink:href="#m243ddd7792" y="218.23835"/>
     <use style="stroke:#000000;" x="301.041967" xlink:href="#m243ddd7792" y="218.2476"/>
     <use style="stroke:#000000;" x="302.264311" xlink:href="#m243ddd7792" y="218.248087"/>
     <use style="stroke:#000000;" x="303.486655" xlink:href="#m243ddd7792" y="218.239324"/>
     <use style="stroke:#000000;" x="304.708998" xlink:href="#m243ddd7792" y="218.236403"/>
     <use style="stroke:#000000;" x="305.931342" xlink:href="#m243ddd7792" y="218.239811"/>
     <use style="stroke:#000000;" x="307.153686" xlink:href="#m243ddd7792" y="218.237377"/>
     <use style="stroke:#000000;" x="308.37603" xlink:href="#m243ddd7792" y="218.240785"/>
     <use style="stroke:#000000;" x="309.598374" xlink:href="#m243ddd7792" y="218.246627"/>
     <use style="stroke:#000000;" x="310.820718" xlink:href="#m243ddd7792" y="218.23835"/>
     <use style="stroke:#000000;" x="312.043062" xlink:href="#m243ddd7792" y="218.247114"/>
     <use style="stroke:#000000;" x="313.265406" xlink:href="#m243ddd7792" y="218.242245"/>
     <use style="stroke:#000000;" x="314.48775" xlink:href="#m243ddd7792" y="218.2476"/>
     <use style="stroke:#000000;" x="315.710094" xlink:href="#m243ddd7792" y="218.239811"/>
     <use style="stroke:#000000;" x="316.932438" xlink:href="#m243ddd7792" y="218.243219"/>
     <use style="stroke:#000000;" x="318.154782" xlink:href="#m243ddd7792" y="218.240298"/>
     <use style="stroke:#000000;" x="319.377126" xlink:href="#m243ddd7792" y="218.243706"/>
     <use style="stroke:#000000;" x="320.599469" xlink:href="#m243ddd7792" y="218.249061"/>
     <use style="stroke:#000000;" x="321.821813" xlink:href="#m243ddd7792" y="218.244193"/>
     <use style="stroke:#000000;" x="323.044157" xlink:href="#m243ddd7792" y="218.244679"/>
     <use style="stroke:#000000;" x="324.266501" xlink:href="#m243ddd7792" y="218.249548"/>
     <use style="stroke:#000000;" x="325.488845" xlink:href="#m243ddd7792" y="218.251982"/>
     <use style="stroke:#000000;" x="326.711189" xlink:href="#m243ddd7792" y="218.245166"/>
     <use style="stroke:#000000;" x="327.933533" xlink:href="#m243ddd7792" y="218.245653"/>
     <use style="stroke:#000000;" x="329.155877" xlink:href="#m243ddd7792" y="218.250522"/>
     <use style="stroke:#000000;" x="330.378221" xlink:href="#m243ddd7792" y="218.243219"/>
     <use style="stroke:#000000;" x="331.600565" xlink:href="#m243ddd7792" y="218.243706"/>
     <use style="stroke:#000000;" x="332.822909" xlink:href="#m243ddd7792" y="218.253443"/>
     <use style="stroke:#000000;" x="334.045253" xlink:href="#m243ddd7792" y="218.244193"/>
     <use style="stroke:#000000;" x="335.267597" xlink:href="#m243ddd7792" y="218.244193"/>
     <use style="stroke:#000000;" x="336.48994" xlink:href="#m243ddd7792" y="218.247114"/>
     <use style="stroke:#000000;" x="337.712284" xlink:href="#m243ddd7792" y="218.244679"/>
     <use style="stroke:#000000;" x="338.934628" xlink:href="#m243ddd7792" y="218.245166"/>
     <use style="stroke:#000000;" x="340.156972" xlink:href="#m243ddd7792" y="218.248087"/>
     <use style="stroke:#000000;" x="341.379316" xlink:href="#m243ddd7792" y="218.252956"/>
     <use style="stroke:#000000;" x="342.60166" xlink:href="#m243ddd7792" y="218.252956"/>
     <use style="stroke:#000000;" x="343.824004" xlink:href="#m243ddd7792" y="218.24614"/>
     <use style="stroke:#000000;" x="345.046348" xlink:href="#m243ddd7792" y="218.253443"/>
     <use style="stroke:#000000;" x="346.268692" xlink:href="#m243ddd7792" y="218.246627"/>
     <use style="stroke:#000000;" x="347.491036" xlink:href="#m243ddd7792" y="218.253443"/>
     <use style="stroke:#000000;" x="348.71338" xlink:href="#m243ddd7792" y="218.25539"/>
     <use style="stroke:#000000;" x="349.935724" xlink:href="#m243ddd7792" y="218.247114"/>
     <use style="stroke:#000000;" x="351.158067" xlink:href="#m243ddd7792" y="218.255877"/>
     <use style="stroke:#000000;" x="352.380411" xlink:href="#m243ddd7792" y="218.255877"/>
     <use style="stroke:#000000;" x="353.602755" xlink:href="#m243ddd7792" y="218.255877"/>
     <use style="stroke:#000000;" x="354.825099" xlink:href="#m243ddd7792" y="218.254903"/>
     <use style="stroke:#000000;" x="356.047443" xlink:href="#m243ddd7792" y="218.256364"/>
    </g>
   </g>
   <g id="patch_3">
    <path d="M 36.465625 228.14 
L 36.465625 10.7 
" style="fill:none;stroke:#000000;stroke-linecap:square;stroke-linejoin:miter;stroke-width:0.8;"/>
   </g>
   <g id="patch_4">
    <path d="M 371.265625 228.14 
L 371.265625 10.7 
" style="fill:none;stroke:#000000;stroke-linecap:square;stroke-linejoin:miter;stroke-width:0.8;"/>
   </g>
   <g id="patch_5">
    <path d="M 36.465625 228.14 
L 371.265625 228.14 
" style="fill:none;stroke:#000000;stroke-linecap:square;stroke-linejoin:miter;stroke-width:0.8;"/>
   </g>
   <g id="patch_6">
    <path d="M 36.465625 10.7 
L 371.265625 10.7 
" style="fill:none;stroke:#000000;stroke-linecap:square;stroke-linejoin:miter;stroke-width:0.8;"/>
   </g>
  </g>
 </g>
 <defs>
  <clipPath id="p241ddb0363">
   <rect height="217.44" width="334.8" x="36.465625" y="10.7"/>
  </clipPath>
 </defs>
</svg>
