<?xml version="1.0" encoding="utf-8" standalone="no"?>
<!DOCTYPE svg PUBLIC "-//W3C//DTD SVG 1.1//EN"
  "http://www.w3.org/Graphics/SVG/1.1/DTD/svg11.dtd">
<!-- Created with matplotlib (http://matplotlib.org/) -->
<svg height="252.018125pt" version="1.1" viewBox="0 0 375.603125 252.018125" width="375.603125pt" xmlns="http://www.w3.org/2000/svg" xmlns:xlink="http://www.w3.org/1999/xlink">
 <defs>
  <style type="text/css">
*{stroke-linecap:butt;stroke-linejoin:round;}
  </style>
 </defs>
 <g id="figure_1">
  <g id="patch_1">
   <path d="M 0 252.018125 
L 375.603125 252.018125 
L 375.603125 0 
L 0 0 
z
" style="fill:none;"/>
  </g>
  <g id="axes_1">
   <g id="patch_2">
    <path d="M 30.103125 228.14 
L 364.903125 228.14 
L 364.903125 10.7 
L 30.103125 10.7 
z
" style="fill:#ffffff;"/>
   </g>
   <g id="matplotlib.axis_1">
    <g id="xtick_1">
     <g id="line2d_1">
      <defs>
       <path d="M 0 0 
L 0 3.5 
" id="mce29926879" style="stroke:#000000;stroke-width:0.8;"/>
      </defs>
      <g>
       <use style="stroke:#000000;stroke-width:0.8;" x="45.321307" xlink:href="#mce29926879" y="228.14"/>
      </g>
     </g>
     <g id="text_1">
      <!-- 0 -->
      <defs>
       <path d="M 31.78125 66.40625 
Q 24.171875 66.40625 20.328125 58.90625 
Q 16.5 51.421875 16.5 36.375 
Q 16.5 21.390625 20.328125 13.890625 
Q 24.171875 6.390625 31.78125 6.390625 
Q 39.453125 6.390625 43.28125 13.890625 
Q 47.125 21.390625 47.125 36.375 
Q 47.125 51.421875 43.28125 58.90625 
Q 39.453125 66.40625 31.78125 66.40625 
z
M 31.78125 74.21875 
Q 44.046875 74.21875 50.515625 64.515625 
Q 56.984375 54.828125 56.984375 36.375 
Q 56.984375 17.96875 50.515625 8.265625 
Q 44.046875 -1.421875 31.78125 -1.421875 
Q 19.53125 -1.421875 13.0625 8.265625 
Q 6.59375 17.96875 6.59375 36.375 
Q 6.59375 54.828125 13.0625 64.515625 
Q 19.53125 74.21875 31.78125 74.21875 
z
" id="DejaVuSans-30"/>
      </defs>
      <g transform="translate(42.140057 242.738437)scale(0.1 -0.1)">
       <use xlink:href="#DejaVuSans-30"/>
      </g>
     </g>
    </g>
    <g id="xtick_2">
     <g id="line2d_2">
      <g>
       <use style="stroke:#000000;stroke-width:0.8;" x="106.438503" xlink:href="#mce29926879" y="228.14"/>
      </g>
     </g>
     <g id="text_2">
      <!-- 1000 -->
      <defs>
       <path d="M 12.40625 8.296875 
L 28.515625 8.296875 
L 28.515625 63.921875 
L 10.984375 60.40625 
L 10.984375 69.390625 
L 28.421875 72.90625 
L 38.28125 72.90625 
L 38.28125 8.296875 
L 54.390625 8.296875 
L 54.390625 0 
L 12.40625 0 
z
" id="DejaVuSans-31"/>
      </defs>
      <g transform="translate(93.713503 242.738437)scale(0.1 -0.1)">
       <use xlink:href="#DejaVuSans-31"/>
       <use x="63.623047" xlink:href="#DejaVuSans-30"/>
       <use x="127.246094" xlink:href="#DejaVuSans-30"/>
       <use x="190.869141" xlink:href="#DejaVuSans-30"/>
      </g>
     </g>
    </g>
    <g id="xtick_3">
     <g id="line2d_3">
      <g>
       <use style="stroke:#000000;stroke-width:0.8;" x="167.555699" xlink:href="#mce29926879" y="228.14"/>
      </g>
     </g>
     <g id="text_3">
      <!-- 2000 -->
      <defs>
       <path d="M 19.1875 8.296875 
L 53.609375 8.296875 
L 53.609375 0 
L 7.328125 0 
L 7.328125 8.296875 
Q 12.9375 14.109375 22.625 23.890625 
Q 32.328125 33.6875 34.8125 36.53125 
Q 39.546875 41.84375 41.421875 45.53125 
Q 43.3125 49.21875 43.3125 52.78125 
Q 43.3125 58.59375 39.234375 62.25 
Q 35.15625 65.921875 28.609375 65.921875 
Q 23.96875 65.921875 18.8125 64.3125 
Q 13.671875 62.703125 7.8125 59.421875 
L 7.8125 69.390625 
Q 13.765625 71.78125 18.9375 73 
Q 24.125 74.21875 28.421875 74.21875 
Q 39.75 74.21875 46.484375 68.546875 
Q 53.21875 62.890625 53.21875 53.421875 
Q 53.21875 48.921875 51.53125 44.890625 
Q 49.859375 40.875 45.40625 35.40625 
Q 44.1875 33.984375 37.640625 27.21875 
Q 31.109375 20.453125 19.1875 8.296875 
z
" id="DejaVuSans-32"/>
      </defs>
      <g transform="translate(154.830699 242.738437)scale(0.1 -0.1)">
       <use xlink:href="#DejaVuSans-32"/>
       <use x="63.623047" xlink:href="#DejaVuSans-30"/>
       <use x="127.246094" xlink:href="#DejaVuSans-30"/>
       <use x="190.869141" xlink:href="#DejaVuSans-30"/>
      </g>
     </g>
    </g>
    <g id="xtick_4">
     <g id="line2d_4">
      <g>
       <use style="stroke:#000000;stroke-width:0.8;" x="228.672895" xlink:href="#mce29926879" y="228.14"/>
      </g>
     </g>
     <g id="text_4">
      <!-- 3000 -->
      <defs>
       <path d="M 40.578125 39.3125 
Q 47.65625 37.796875 51.625 33 
Q 55.609375 28.21875 55.609375 21.1875 
Q 55.609375 10.40625 48.1875 4.484375 
Q 40.765625 -1.421875 27.09375 -1.421875 
Q 22.515625 -1.421875 17.65625 -0.515625 
Q 12.796875 0.390625 7.625 2.203125 
L 7.625 11.71875 
Q 11.71875 9.328125 16.59375 8.109375 
Q 21.484375 6.890625 26.8125 6.890625 
Q 36.078125 6.890625 40.9375 10.546875 
Q 45.796875 14.203125 45.796875 21.1875 
Q 45.796875 27.640625 41.28125 31.265625 
Q 36.765625 34.90625 28.71875 34.90625 
L 20.21875 34.90625 
L 20.21875 43.015625 
L 29.109375 43.015625 
Q 36.375 43.015625 40.234375 45.921875 
Q 44.09375 48.828125 44.09375 54.296875 
Q 44.09375 59.90625 40.109375 62.90625 
Q 36.140625 65.921875 28.71875 65.921875 
Q 24.65625 65.921875 20.015625 65.03125 
Q 15.375 64.15625 9.8125 62.3125 
L 9.8125 71.09375 
Q 15.4375 72.65625 20.34375 73.4375 
Q 25.25 74.21875 29.59375 74.21875 
Q 40.828125 74.21875 47.359375 69.109375 
Q 53.90625 64.015625 53.90625 55.328125 
Q 53.90625 49.265625 50.4375 45.09375 
Q 46.96875 40.921875 40.578125 39.3125 
z
" id="DejaVuSans-33"/>
      </defs>
      <g transform="translate(215.947895 242.738437)scale(0.1 -0.1)">
       <use xlink:href="#DejaVuSans-33"/>
       <use x="63.623047" xlink:href="#DejaVuSans-30"/>
       <use x="127.246094" xlink:href="#DejaVuSans-30"/>
       <use x="190.869141" xlink:href="#DejaVuSans-30"/>
      </g>
     </g>
    </g>
    <g id="xtick_5">
     <g id="line2d_5">
      <g>
       <use style="stroke:#000000;stroke-width:0.8;" x="289.790091" xlink:href="#mce29926879" y="228.14"/>
      </g>
     </g>
     <g id="text_5">
      <!-- 4000 -->
      <defs>
       <path d="M 37.796875 64.3125 
L 12.890625 25.390625 
L 37.796875 25.390625 
z
M 35.203125 72.90625 
L 47.609375 72.90625 
L 47.609375 25.390625 
L 58.015625 25.390625 
L 58.015625 17.1875 
L 47.609375 17.1875 
L 47.609375 0 
L 37.796875 0 
L 37.796875 17.1875 
L 4.890625 17.1875 
L 4.890625 26.703125 
z
" id="DejaVuSans-34"/>
      </defs>
      <g transform="translate(277.065091 242.738437)scale(0.1 -0.1)">
       <use xlink:href="#DejaVuSans-34"/>
       <use x="63.623047" xlink:href="#DejaVuSans-30"/>
       <use x="127.246094" xlink:href="#DejaVuSans-30"/>
       <use x="190.869141" xlink:href="#DejaVuSans-30"/>
      </g>
     </g>
    </g>
    <g id="xtick_6">
     <g id="line2d_6">
      <g>
       <use style="stroke:#000000;stroke-width:0.8;" x="350.907287" xlink:href="#mce29926879" y="228.14"/>
      </g>
     </g>
     <g id="text_6">
      <!-- 5000 -->
      <defs>
       <path d="M 10.796875 72.90625 
L 49.515625 72.90625 
L 49.515625 64.59375 
L 19.828125 64.59375 
L 19.828125 46.734375 
Q 21.96875 47.46875 24.109375 47.828125 
Q 26.265625 48.1875 28.421875 48.1875 
Q 40.625 48.1875 47.75 41.5 
Q 54.890625 34.8125 54.890625 23.390625 
Q 54.890625 11.625 47.5625 5.09375 
Q 40.234375 -1.421875 26.90625 -1.421875 
Q 22.3125 -1.421875 17.546875 -0.640625 
Q 12.796875 0.140625 7.71875 1.703125 
L 7.71875 11.625 
Q 12.109375 9.234375 16.796875 8.0625 
Q 21.484375 6.890625 26.703125 6.890625 
Q 35.15625 6.890625 40.078125 11.328125 
Q 45.015625 15.765625 45.015625 23.390625 
Q 45.015625 31 40.078125 35.4375 
Q 35.15625 39.890625 26.703125 39.890625 
Q 22.75 39.890625 18.8125 39.015625 
Q 14.890625 38.140625 10.796875 36.28125 
z
" id="DejaVuSans-35"/>
      </defs>
      <g transform="translate(338.182287 242.738437)scale(0.1 -0.1)">
       <use xlink:href="#DejaVuSans-35"/>
       <use x="63.623047" xlink:href="#DejaVuSans-30"/>
       <use x="127.246094" xlink:href="#DejaVuSans-30"/>
       <use x="190.869141" xlink:href="#DejaVuSans-30"/>
      </g>
     </g>
    </g>
   </g>
   <g id="matplotlib.axis_2">
    <g id="ytick_1">
     <g id="line2d_7">
      <defs>
       <path d="M 0 0 
L -3.5 0 
" id="m894b78f60b" style="stroke:#000000;stroke-width:0.8;"/>
      </defs>
      <g>
       <use style="stroke:#000000;stroke-width:0.8;" x="30.103125" xlink:href="#m894b78f60b" y="218.331614"/>
      </g>
     </g>
     <g id="text_7">
      <!-- 0.0 -->
      <defs>
       <path d="M 10.6875 12.40625 
L 21 12.40625 
L 21 0 
L 10.6875 0 
z
" id="DejaVuSans-2e"/>
      </defs>
      <g transform="translate(7.2 222.130832)scale(0.1 -0.1)">
       <use xlink:href="#DejaVuSans-30"/>
       <use x="63.623047" xlink:href="#DejaVuSans-2e"/>
       <use x="95.410156" xlink:href="#DejaVuSans-30"/>
      </g>
     </g>
    </g>
    <g id="ytick_2">
     <g id="line2d_8">
      <g>
       <use style="stroke:#000000;stroke-width:0.8;" x="30.103125" xlink:href="#m894b78f60b" y="182.498227"/>
      </g>
     </g>
     <g id="text_8">
      <!-- 0.1 -->
      <g transform="translate(7.2 186.297446)scale(0.1 -0.1)">
       <use xlink:href="#DejaVuSans-30"/>
       <use x="63.623047" xlink:href="#DejaVuSans-2e"/>
       <use x="95.410156" xlink:href="#DejaVuSans-31"/>
      </g>
     </g>
    </g>
    <g id="ytick_3">
     <g id="line2d_9">
      <g>
       <use style="stroke:#000000;stroke-width:0.8;" x="30.103125" xlink:href="#m894b78f60b" y="146.664841"/>
      </g>
     </g>
     <g id="text_9">
      <!-- 0.2 -->
      <g transform="translate(7.2 150.464059)scale(0.1 -0.1)">
       <use xlink:href="#DejaVuSans-30"/>
       <use x="63.623047" xlink:href="#DejaVuSans-2e"/>
       <use x="95.410156" xlink:href="#DejaVuSans-32"/>
      </g>
     </g>
    </g>
    <g id="ytick_4">
     <g id="line2d_10">
      <g>
       <use style="stroke:#000000;stroke-width:0.8;" x="30.103125" xlink:href="#m894b78f60b" y="110.831454"/>
      </g>
     </g>
     <g id="text_10">
      <!-- 0.3 -->
      <g transform="translate(7.2 114.630673)scale(0.1 -0.1)">
       <use xlink:href="#DejaVuSans-30"/>
       <use x="63.623047" xlink:href="#DejaVuSans-2e"/>
       <use x="95.410156" xlink:href="#DejaVuSans-33"/>
      </g>
     </g>
    </g>
    <g id="ytick_5">
     <g id="line2d_11">
      <g>
       <use style="stroke:#000000;stroke-width:0.8;" x="30.103125" xlink:href="#m894b78f60b" y="74.998067"/>
      </g>
     </g>
     <g id="text_11">
      <!-- 0.4 -->
      <g transform="translate(7.2 78.797286)scale(0.1 -0.1)">
       <use xlink:href="#DejaVuSans-30"/>
       <use x="63.623047" xlink:href="#DejaVuSans-2e"/>
       <use x="95.410156" xlink:href="#DejaVuSans-34"/>
      </g>
     </g>
    </g>
    <g id="ytick_6">
     <g id="line2d_12">
      <g>
       <use style="stroke:#000000;stroke-width:0.8;" x="30.103125" xlink:href="#m894b78f60b" y="39.164681"/>
      </g>
     </g>
     <g id="text_12">
      <!-- 0.5 -->
      <g transform="translate(7.2 42.963899)scale(0.1 -0.1)">
       <use xlink:href="#DejaVuSans-30"/>
       <use x="63.623047" xlink:href="#DejaVuSans-2e"/>
       <use x="95.410156" xlink:href="#DejaVuSans-35"/>
      </g>
     </g>
    </g>
   </g>
   <g id="line2d_13">
    <defs>
     <path d="M 0 1 
C 0.265203 1 0.51958 0.894634 0.707107 0.707107 
C 0.894634 0.51958 1 0.265203 1 0 
C 1 -0.265203 0.894634 -0.51958 0.707107 -0.707107 
C 0.51958 -0.894634 0.265203 -1 0 -1 
C -0.265203 -1 -0.51958 -0.894634 -0.707107 -0.707107 
C -0.894634 -0.51958 -1 -0.265203 -1 0 
C -1 0.265203 -0.894634 0.51958 -0.707107 0.707107 
C -0.51958 0.894634 -0.265203 1 0 1 
z
" id="m53a1add321" style="stroke:#000000;"/>
    </defs>
    <g clip-path="url(#p92910f3403)">
     <use style="stroke:#000000;" x="45.321307" xlink:href="#m53a1add321" y="20.583636"/>
     <use style="stroke:#000000;" x="46.543651" xlink:href="#m53a1add321" y="76.344328"/>
     <use style="stroke:#000000;" x="47.765995" xlink:href="#m53a1add321" y="76.848145"/>
     <use style="stroke:#000000;" x="48.988339" xlink:href="#m53a1add321" y="78.655939"/>
     <use style="stroke:#000000;" x="50.210683" xlink:href="#m53a1add321" y="89.916581"/>
     <use style="stroke:#000000;" x="51.433026" xlink:href="#m53a1add321" y="96.698408"/>
     <use style="stroke:#000000;" x="52.65537" xlink:href="#m53a1add321" y="118.562865"/>
     <use style="stroke:#000000;" x="53.877714" xlink:href="#m53a1add321" y="111.541672"/>
     <use style="stroke:#000000;" x="55.100058" xlink:href="#m53a1add321" y="133.894538"/>
     <use style="stroke:#000000;" x="56.322402" xlink:href="#m53a1add321" y="136.997351"/>
     <use style="stroke:#000000;" x="57.544746" xlink:href="#m53a1add321" y="130.854075"/>
     <use style="stroke:#000000;" x="58.76709" xlink:href="#m53a1add321" y="147.312708"/>
     <use style="stroke:#000000;" x="59.989434" xlink:href="#m53a1add321" y="165.752569"/>
     <use style="stroke:#000000;" x="61.211778" xlink:href="#m53a1add321" y="164.917651"/>
     <use style="stroke:#000000;" x="62.434122" xlink:href="#m53a1add321" y="170.822276"/>
     <use style="stroke:#000000;" x="63.656466" xlink:href="#m53a1add321" y="197.762175"/>
     <use style="stroke:#000000;" x="64.87881" xlink:href="#m53a1add321" y="179.866265"/>
     <use style="stroke:#000000;" x="66.101153" xlink:href="#m53a1add321" y="183.621962"/>
     <use style="stroke:#000000;" x="67.323497" xlink:href="#m53a1add321" y="207.85214"/>
     <use style="stroke:#000000;" x="68.545841" xlink:href="#m53a1add321" y="200.765013"/>
     <use style="stroke:#000000;" x="69.768185" xlink:href="#m53a1add321" y="210.710927"/>
     <use style="stroke:#000000;" x="70.990529" xlink:href="#m53a1add321" y="180.291607"/>
     <use style="stroke:#000000;" x="72.212873" xlink:href="#m53a1add321" y="212.451713"/>
     <use style="stroke:#000000;" x="73.435217" xlink:href="#m53a1add321" y="196.813307"/>
     <use style="stroke:#000000;" x="74.657561" xlink:href="#m53a1add321" y="198.475259"/>
     <use style="stroke:#000000;" x="75.879905" xlink:href="#m53a1add321" y="191.466965"/>
     <use style="stroke:#000000;" x="77.102249" xlink:href="#m53a1add321" y="214.283874"/>
     <use style="stroke:#000000;" x="78.324593" xlink:href="#m53a1add321" y="214.604225"/>
     <use style="stroke:#000000;" x="79.546937" xlink:href="#m53a1add321" y="203.437108"/>
     <use style="stroke:#000000;" x="80.769281" xlink:href="#m53a1add321" y="215.071134"/>
     <use style="stroke:#000000;" x="81.991624" xlink:href="#m53a1add321" y="215.270726"/>
     <use style="stroke:#000000;" x="83.213968" xlink:href="#m53a1add321" y="202.059315"/>
     <use style="stroke:#000000;" x="84.436312" xlink:href="#m53a1add321" y="215.583193"/>
     <use style="stroke:#000000;" x="85.658656" xlink:href="#m53a1add321" y="208.03059"/>
     <use style="stroke:#000000;" x="86.881" xlink:href="#m53a1add321" y="205.333411"/>
     <use style="stroke:#000000;" x="88.103344" xlink:href="#m53a1add321" y="213.249006"/>
     <use style="stroke:#000000;" x="89.325688" xlink:href="#m53a1add321" y="216.078769"/>
     <use style="stroke:#000000;" x="90.548032" xlink:href="#m53a1add321" y="208.005507"/>
     <use style="stroke:#000000;" x="91.770376" xlink:href="#m53a1add321" y="213.996491"/>
     <use style="stroke:#000000;" x="92.99272" xlink:href="#m53a1add321" y="214.265958"/>
     <use style="stroke:#000000;" x="94.215064" xlink:href="#m53a1add321" y="216.414528"/>
     <use style="stroke:#000000;" x="95.437408" xlink:href="#m53a1add321" y="216.490494"/>
     <use style="stroke:#000000;" x="96.659752" xlink:href="#m53a1add321" y="216.551769"/>
     <use style="stroke:#000000;" x="97.882095" xlink:href="#m53a1add321" y="211.397495"/>
     <use style="stroke:#000000;" x="99.104439" xlink:href="#m53a1add321" y="216.671811"/>
     <use style="stroke:#000000;" x="100.326783" xlink:href="#m53a1add321" y="216.729861"/>
     <use style="stroke:#000000;" x="101.549127" xlink:href="#m53a1add321" y="215.382884"/>
     <use style="stroke:#000000;" x="102.771471" xlink:href="#m53a1add321" y="215.533743"/>
     <use style="stroke:#000000;" x="103.993815" xlink:href="#m53a1add321" y="215.620101"/>
     <use style="stroke:#000000;" x="105.216159" xlink:href="#m53a1add321" y="216.926228"/>
     <use style="stroke:#000000;" x="106.438503" xlink:href="#m53a1add321" y="214.522166"/>
     <use style="stroke:#000000;" x="107.660847" xlink:href="#m53a1add321" y="214.672667"/>
     <use style="stroke:#000000;" x="108.883191" xlink:href="#m53a1add321" y="214.087149"/>
     <use style="stroke:#000000;" x="110.105535" xlink:href="#m53a1add321" y="214.991584"/>
     <use style="stroke:#000000;" x="111.327879" xlink:href="#m53a1add321" y="215.162867"/>
     <use style="stroke:#000000;" x="112.550222" xlink:href="#m53a1add321" y="214.544741"/>
     <use style="stroke:#000000;" x="113.772566" xlink:href="#m53a1add321" y="215.411551"/>
     <use style="stroke:#000000;" x="114.99491" xlink:href="#m53a1add321" y="217.231529"/>
     <use style="stroke:#000000;" x="116.217254" xlink:href="#m53a1add321" y="216.501961"/>
     <use style="stroke:#000000;" x="117.439598" xlink:href="#m53a1add321" y="215.74946"/>
     <use style="stroke:#000000;" x="118.661942" xlink:href="#m53a1add321" y="216.611253"/>
     <use style="stroke:#000000;" x="119.884286" xlink:href="#m53a1add321" y="215.952994"/>
     <use style="stroke:#000000;" x="121.10663" xlink:href="#m53a1add321" y="215.602543"/>
     <use style="stroke:#000000;" x="122.328974" xlink:href="#m53a1add321" y="215.685318"/>
     <use style="stroke:#000000;" x="123.551318" xlink:href="#m53a1add321" y="217.421446"/>
     <use style="stroke:#000000;" x="124.773662" xlink:href="#m53a1add321" y="216.279077"/>
     <use style="stroke:#000000;" x="125.996006" xlink:href="#m53a1add321" y="216.346086"/>
     <use style="stroke:#000000;" x="127.21835" xlink:href="#m53a1add321" y="216.083785"/>
     <use style="stroke:#000000;" x="128.440693" xlink:href="#m53a1add321" y="217.512821"/>
     <use style="stroke:#000000;" x="129.663037" xlink:href="#m53a1add321" y="217.533604"/>
     <use style="stroke:#000000;" x="130.885381" xlink:href="#m53a1add321" y="216.594053"/>
     <use style="stroke:#000000;" x="132.107725" xlink:href="#m53a1add321" y="217.570871"/>
     <use style="stroke:#000000;" x="133.330069" xlink:href="#m53a1add321" y="216.704778"/>
     <use style="stroke:#000000;" x="134.552413" xlink:href="#m53a1add321" y="216.494078"/>
     <use style="stroke:#000000;" x="135.774757" xlink:href="#m53a1add321" y="216.809053"/>
     <use style="stroke:#000000;" x="136.997101" xlink:href="#m53a1add321" y="216.853128"/>
     <use style="stroke:#000000;" x="138.219445" xlink:href="#m53a1add321" y="217.655438"/>
     <use style="stroke:#000000;" x="139.441789" xlink:href="#m53a1add321" y="216.938412"/>
     <use style="stroke:#000000;" x="140.664133" xlink:href="#m53a1add321" y="217.685538"/>
     <use style="stroke:#000000;" x="141.886477" xlink:href="#m53a1add321" y="216.838795"/>
     <use style="stroke:#000000;" x="143.108821" xlink:href="#m53a1add321" y="217.396721"/>
     <use style="stroke:#000000;" x="144.331164" xlink:href="#m53a1add321" y="216.935545"/>
     <use style="stroke:#000000;" x="145.553508" xlink:href="#m53a1add321" y="216.976395"/>
     <use style="stroke:#000000;" x="146.775852" xlink:href="#m53a1add321" y="217.014737"/>
     <use style="stroke:#000000;" x="147.998196" xlink:href="#m53a1add321" y="217.481646"/>
     <use style="stroke:#000000;" x="149.22054" xlink:href="#m53a1add321" y="217.220062"/>
     <use style="stroke:#000000;" x="150.442884" xlink:href="#m53a1add321" y="217.526079"/>
     <use style="stroke:#000000;" x="151.665228" xlink:href="#m53a1add321" y="217.163445"/>
     <use style="stroke:#000000;" x="152.887572" xlink:href="#m53a1add321" y="217.810955"/>
     <use style="stroke:#000000;" x="154.109916" xlink:href="#m53a1add321" y="217.234395"/>
     <use style="stroke:#000000;" x="155.33226" xlink:href="#m53a1add321" y="217.273096"/>
     <use style="stroke:#000000;" x="156.554604" xlink:href="#m53a1add321" y="217.841771"/>
     <use style="stroke:#000000;" x="157.776948" xlink:href="#m53a1add321" y="217.851805"/>
     <use style="stroke:#000000;" x="158.999291" xlink:href="#m53a1add321" y="217.86148"/>
     <use style="stroke:#000000;" x="160.221635" xlink:href="#m53a1add321" y="217.371637"/>
     <use style="stroke:#000000;" x="161.443979" xlink:href="#m53a1add321" y="217.461937"/>
     <use style="stroke:#000000;" x="162.666323" xlink:href="#m53a1add321" y="217.701304"/>
     <use style="stroke:#000000;" x="163.888667" xlink:href="#m53a1add321" y="217.502429"/>
     <use style="stroke:#000000;" x="165.111011" xlink:href="#m53a1add321" y="217.463371"/>
     <use style="stroke:#000000;" x="166.333355" xlink:href="#m53a1add321" y="217.473762"/>
     <use style="stroke:#000000;" x="167.555699" xlink:href="#m53a1add321" y="217.91953"/>
     <use style="stroke:#000000;" x="168.778043" xlink:href="#m53a1add321" y="217.757921"/>
     <use style="stroke:#000000;" x="170.000387" xlink:href="#m53a1add321" y="217.526796"/>
     <use style="stroke:#000000;" x="171.222731" xlink:href="#m53a1add321" y="217.785513"/>
     <use style="stroke:#000000;" x="172.445075" xlink:href="#m53a1add321" y="217.948197"/>
     <use style="stroke:#000000;" x="173.667419" xlink:href="#m53a1add321" y="217.811671"/>
     <use style="stroke:#000000;" x="174.889762" xlink:href="#m53a1add321" y="217.821346"/>
     <use style="stroke:#000000;" x="176.112106" xlink:href="#m53a1add321" y="217.829946"/>
     <use style="stroke:#000000;" x="177.33445" xlink:href="#m53a1add321" y="217.974355"/>
     <use style="stroke:#000000;" x="178.556794" xlink:href="#m53a1add321" y="217.651496"/>
     <use style="stroke:#000000;" x="179.779138" xlink:href="#m53a1add321" y="217.700946"/>
     <use style="stroke:#000000;" x="181.001482" xlink:href="#m53a1add321" y="217.690196"/>
     <use style="stroke:#000000;" x="182.223826" xlink:href="#m53a1add321" y="217.726746"/>
     <use style="stroke:#000000;" x="183.44617" xlink:href="#m53a1add321" y="217.737855"/>
     <use style="stroke:#000000;" x="184.668514" xlink:href="#m53a1add321" y="217.891221"/>
     <use style="stroke:#000000;" x="185.890858" xlink:href="#m53a1add321" y="218.013772"/>
     <use style="stroke:#000000;" x="187.113202" xlink:href="#m53a1add321" y="217.911646"/>
     <use style="stroke:#000000;" x="188.335546" xlink:href="#m53a1add321" y="217.750038"/>
     <use style="stroke:#000000;" x="189.55789" xlink:href="#m53a1add321" y="218.028463"/>
     <use style="stroke:#000000;" x="190.780233" xlink:href="#m53a1add321" y="218.032763"/>
     <use style="stroke:#000000;" x="192.002577" xlink:href="#m53a1add321" y="218.037422"/>
     <use style="stroke:#000000;" x="193.224921" xlink:href="#m53a1add321" y="218.04208"/>
     <use style="stroke:#000000;" x="194.447265" xlink:href="#m53a1add321" y="218.046738"/>
     <use style="stroke:#000000;" x="195.669609" xlink:href="#m53a1add321" y="218.051038"/>
     <use style="stroke:#000000;" x="196.891953" xlink:href="#m53a1add321" y="217.969338"/>
     <use style="stroke:#000000;" x="198.114297" xlink:href="#m53a1add321" y="217.967905"/>
     <use style="stroke:#000000;" x="199.336641" xlink:href="#m53a1add321" y="217.976863"/>
     <use style="stroke:#000000;" x="200.558985" xlink:href="#m53a1add321" y="218.067522"/>
     <use style="stroke:#000000;" x="201.781329" xlink:href="#m53a1add321" y="218.071463"/>
     <use style="stroke:#000000;" x="203.003673" xlink:href="#m53a1add321" y="218.075047"/>
     <use style="stroke:#000000;" x="204.226017" xlink:href="#m53a1add321" y="217.998005"/>
     <use style="stroke:#000000;" x="205.44836" xlink:href="#m53a1add321" y="218.003738"/>
     <use style="stroke:#000000;" x="206.670704" xlink:href="#m53a1add321" y="217.90018"/>
     <use style="stroke:#000000;" x="207.893048" xlink:href="#m53a1add321" y="218.089738"/>
     <use style="stroke:#000000;" x="209.115392" xlink:href="#m53a1add321" y="218.022013"/>
     <use style="stroke:#000000;" x="210.337736" xlink:href="#m53a1add321" y="218.096188"/>
     <use style="stroke:#000000;" x="211.56008" xlink:href="#m53a1add321" y="218.029897"/>
     <use style="stroke:#000000;" x="212.782424" xlink:href="#m53a1add321" y="218.102997"/>
     <use style="stroke:#000000;" x="214.004768" xlink:href="#m53a1add321" y="218.105863"/>
     <use style="stroke:#000000;" x="215.227112" xlink:href="#m53a1add321" y="218.109088"/>
     <use style="stroke:#000000;" x="216.449456" xlink:href="#m53a1add321" y="218.111955"/>
     <use style="stroke:#000000;" x="217.6718" xlink:href="#m53a1add321" y="217.962888"/>
     <use style="stroke:#000000;" x="218.894144" xlink:href="#m53a1add321" y="218.118047"/>
     <use style="stroke:#000000;" x="220.116488" xlink:href="#m53a1add321" y="218.120555"/>
     <use style="stroke:#000000;" x="221.338831" xlink:href="#m53a1add321" y="217.978297"/>
     <use style="stroke:#000000;" x="222.561175" xlink:href="#m53a1add321" y="217.977938"/>
     <use style="stroke:#000000;" x="223.783519" xlink:href="#m53a1add321" y="217.989047"/>
     <use style="stroke:#000000;" x="225.005863" xlink:href="#m53a1add321" y="218.131305"/>
     <use style="stroke:#000000;" x="226.228207" xlink:href="#m53a1add321" y="218.079347"/>
     <use style="stroke:#000000;" x="227.450551" xlink:href="#m53a1add321" y="217.99908"/>
     <use style="stroke:#000000;" x="228.672895" xlink:href="#m53a1add321" y="218.13883"/>
     <use style="stroke:#000000;" x="229.895239" xlink:href="#m53a1add321" y="218.012338"/>
     <use style="stroke:#000000;" x="231.117583" xlink:href="#m53a1add321" y="218.143488"/>
     <use style="stroke:#000000;" x="232.339927" xlink:href="#m53a1add321" y="218.01628"/>
     <use style="stroke:#000000;" x="233.562271" xlink:href="#m53a1add321" y="218.099413"/>
     <use style="stroke:#000000;" x="234.784615" xlink:href="#m53a1add321" y="218.102638"/>
     <use style="stroke:#000000;" x="236.006959" xlink:href="#m53a1add321" y="218.031688"/>
     <use style="stroke:#000000;" x="237.229302" xlink:href="#m53a1add321" y="218.037422"/>
     <use style="stroke:#000000;" x="238.451646" xlink:href="#m53a1add321" y="218.114105"/>
     <use style="stroke:#000000;" x="239.67399" xlink:href="#m53a1add321" y="218.117688"/>
     <use style="stroke:#000000;" x="240.896334" xlink:href="#m53a1add321" y="218.161047"/>
     <use style="stroke:#000000;" x="242.118678" xlink:href="#m53a1add321" y="218.05283"/>
     <use style="stroke:#000000;" x="243.341022" xlink:href="#m53a1add321" y="218.056413"/>
     <use style="stroke:#000000;" x="244.563366" xlink:href="#m53a1add321" y="218.06358"/>
     <use style="stroke:#000000;" x="245.78571" xlink:href="#m53a1add321" y="218.16893"/>
     <use style="stroke:#000000;" x="247.008054" xlink:href="#m53a1add321" y="218.133097"/>
     <use style="stroke:#000000;" x="248.230398" xlink:href="#m53a1add321" y="218.073613"/>
     <use style="stroke:#000000;" x="249.452742" xlink:href="#m53a1add321" y="218.07433"/>
     <use style="stroke:#000000;" x="250.675086" xlink:href="#m53a1add321" y="218.176097"/>
     <use style="stroke:#000000;" x="251.897429" xlink:href="#m53a1add321" y="218.082213"/>
     <use style="stroke:#000000;" x="253.119773" xlink:href="#m53a1add321" y="218.083288"/>
     <use style="stroke:#000000;" x="254.342117" xlink:href="#m53a1add321" y="218.091172"/>
     <use style="stroke:#000000;" x="255.564461" xlink:href="#m53a1add321" y="218.183264"/>
     <use style="stroke:#000000;" x="256.786805" xlink:href="#m53a1add321" y="218.091888"/>
     <use style="stroke:#000000;" x="258.009149" xlink:href="#m53a1add321" y="218.094755"/>
     <use style="stroke:#000000;" x="259.231493" xlink:href="#m53a1add321" y="218.187922"/>
     <use style="stroke:#000000;" x="260.453837" xlink:href="#m53a1add321" y="218.159255"/>
     <use style="stroke:#000000;" x="261.676181" xlink:href="#m53a1add321" y="218.158538"/>
     <use style="stroke:#000000;" x="262.898525" xlink:href="#m53a1add321" y="218.110163"/>
     <use style="stroke:#000000;" x="264.120869" xlink:href="#m53a1add321" y="218.10873"/>
     <use style="stroke:#000000;" x="265.343213" xlink:href="#m53a1add321" y="218.11088"/>
     <use style="stroke:#000000;" x="266.565557" xlink:href="#m53a1add321" y="218.113747"/>
     <use style="stroke:#000000;" x="267.7879" xlink:href="#m53a1add321" y="218.118763"/>
     <use style="stroke:#000000;" x="269.010244" xlink:href="#m53a1add321" y="218.118405"/>
     <use style="stroke:#000000;" x="270.232588" xlink:href="#m53a1add321" y="218.120913"/>
     <use style="stroke:#000000;" x="271.454932" xlink:href="#m53a1add321" y="218.202255"/>
     <use style="stroke:#000000;" x="272.677276" xlink:href="#m53a1add321" y="218.17538"/>
     <use style="stroke:#000000;" x="273.89962" xlink:href="#m53a1add321" y="218.127722"/>
     <use style="stroke:#000000;" x="275.121964" xlink:href="#m53a1add321" y="218.13023"/>
     <use style="stroke:#000000;" x="276.344308" xlink:href="#m53a1add321" y="218.207272"/>
     <use style="stroke:#000000;" x="277.566652" xlink:href="#m53a1add321" y="218.18398"/>
     <use style="stroke:#000000;" x="278.788996" xlink:href="#m53a1add321" y="218.14098"/>
     <use style="stroke:#000000;" x="280.01134" xlink:href="#m53a1add321" y="218.146355"/>
     <use style="stroke:#000000;" x="281.233684" xlink:href="#m53a1add321" y="218.14098"/>
     <use style="stroke:#000000;" x="282.456028" xlink:href="#m53a1add321" y="218.148863"/>
     <use style="stroke:#000000;" x="283.678371" xlink:href="#m53a1add321" y="218.214439"/>
     <use style="stroke:#000000;" x="284.900715" xlink:href="#m53a1add321" y="218.191864"/>
     <use style="stroke:#000000;" x="286.123059" xlink:href="#m53a1add321" y="218.148863"/>
     <use style="stroke:#000000;" x="287.345403" xlink:href="#m53a1add321" y="218.195089"/>
     <use style="stroke:#000000;" x="288.567747" xlink:href="#m53a1add321" y="218.196522"/>
     <use style="stroke:#000000;" x="289.790091" xlink:href="#m53a1add321" y="218.220172"/>
     <use style="stroke:#000000;" x="291.012435" xlink:href="#m53a1add321" y="218.221247"/>
     <use style="stroke:#000000;" x="292.234779" xlink:href="#m53a1add321" y="218.222322"/>
     <use style="stroke:#000000;" x="293.457123" xlink:href="#m53a1add321" y="218.223397"/>
     <use style="stroke:#000000;" x="294.679467" xlink:href="#m53a1add321" y="218.166064"/>
     <use style="stroke:#000000;" x="295.901811" xlink:href="#m53a1add321" y="218.225189"/>
     <use style="stroke:#000000;" x="297.124155" xlink:href="#m53a1add321" y="218.207272"/>
     <use style="stroke:#000000;" x="298.346498" xlink:href="#m53a1add321" y="218.227339"/>
     <use style="stroke:#000000;" x="299.568842" xlink:href="#m53a1add321" y="218.174664"/>
     <use style="stroke:#000000;" x="300.791186" xlink:href="#m53a1add321" y="218.177172"/>
     <use style="stroke:#000000;" x="302.01353" xlink:href="#m53a1add321" y="218.178605"/>
     <use style="stroke:#000000;" x="303.235874" xlink:href="#m53a1add321" y="218.17323"/>
     <use style="stroke:#000000;" x="304.458218" xlink:href="#m53a1add321" y="218.181114"/>
     <use style="stroke:#000000;" x="305.680562" xlink:href="#m53a1add321" y="218.233072"/>
     <use style="stroke:#000000;" x="306.902906" xlink:href="#m53a1add321" y="218.177889"/>
     <use style="stroke:#000000;" x="308.12525" xlink:href="#m53a1add321" y="218.179322"/>
     <use style="stroke:#000000;" x="309.347594" xlink:href="#m53a1add321" y="218.23558"/>
     <use style="stroke:#000000;" x="310.569938" xlink:href="#m53a1add321" y="218.188997"/>
     <use style="stroke:#000000;" x="311.792282" xlink:href="#m53a1add321" y="218.191147"/>
     <use style="stroke:#000000;" x="313.014626" xlink:href="#m53a1add321" y="218.221605"/>
     <use style="stroke:#000000;" x="314.236969" xlink:href="#m53a1add321" y="218.18613"/>
     <use style="stroke:#000000;" x="315.459313" xlink:href="#m53a1add321" y="218.193297"/>
     <use style="stroke:#000000;" x="316.681657" xlink:href="#m53a1add321" y="218.188997"/>
     <use style="stroke:#000000;" x="317.904001" xlink:href="#m53a1add321" y="218.195805"/>
     <use style="stroke:#000000;" x="319.126345" xlink:href="#m53a1add321" y="218.226264"/>
     <use style="stroke:#000000;" x="320.348689" xlink:href="#m53a1add321" y="218.19903"/>
     <use style="stroke:#000000;" x="321.571033" xlink:href="#m53a1add321" y="218.228414"/>
     <use style="stroke:#000000;" x="322.793377" xlink:href="#m53a1add321" y="218.230205"/>
     <use style="stroke:#000000;" x="324.015721" xlink:href="#m53a1add321" y="218.202972"/>
     <use style="stroke:#000000;" x="325.238065" xlink:href="#m53a1add321" y="218.230922"/>
     <use style="stroke:#000000;" x="326.460409" xlink:href="#m53a1add321" y="218.24633"/>
     <use style="stroke:#000000;" x="327.682753" xlink:href="#m53a1add321" y="218.200464"/>
     <use style="stroke:#000000;" x="328.905097" xlink:href="#m53a1add321" y="218.208347"/>
     <use style="stroke:#000000;" x="330.12744" xlink:href="#m53a1add321" y="218.248839"/>
     <use style="stroke:#000000;" x="331.349784" xlink:href="#m53a1add321" y="218.203689"/>
     <use style="stroke:#000000;" x="332.572128" xlink:href="#m53a1add321" y="218.204764"/>
     <use style="stroke:#000000;" x="333.794472" xlink:href="#m53a1add321" y="218.23773"/>
     <use style="stroke:#000000;" x="335.016816" xlink:href="#m53a1add321" y="218.206914"/>
     <use style="stroke:#000000;" x="336.23916" xlink:href="#m53a1add321" y="218.213722"/>
     <use style="stroke:#000000;" x="337.461504" xlink:href="#m53a1add321" y="218.21623"/>
     <use style="stroke:#000000;" x="338.683848" xlink:href="#m53a1add321" y="218.210139"/>
     <use style="stroke:#000000;" x="339.906192" xlink:href="#m53a1add321" y="218.21838"/>
     <use style="stroke:#000000;" x="341.128536" xlink:href="#m53a1add321" y="218.242389"/>
     <use style="stroke:#000000;" x="342.35088" xlink:href="#m53a1add321" y="218.243105"/>
     <use style="stroke:#000000;" x="343.573224" xlink:href="#m53a1add321" y="218.243105"/>
     <use style="stroke:#000000;" x="344.795567" xlink:href="#m53a1add321" y="218.256364"/>
     <use style="stroke:#000000;" x="346.017911" xlink:href="#m53a1add321" y="218.223039"/>
     <use style="stroke:#000000;" x="347.240255" xlink:href="#m53a1add321" y="218.217305"/>
     <use style="stroke:#000000;" x="348.462599" xlink:href="#m53a1add321" y="218.246689"/>
     <use style="stroke:#000000;" x="349.684943" xlink:href="#m53a1add321" y="218.225905"/>
    </g>
   </g>
   <g id="patch_3">
    <path d="M 30.103125 228.14 
L 30.103125 10.7 
" style="fill:none;stroke:#000000;stroke-linecap:square;stroke-linejoin:miter;stroke-width:0.8;"/>
   </g>
   <g id="patch_4">
    <path d="M 364.903125 228.14 
L 364.903125 10.7 
" style="fill:none;stroke:#000000;stroke-linecap:square;stroke-linejoin:miter;stroke-width:0.8;"/>
   </g>
   <g id="patch_5">
    <path d="M 30.103125 228.14 
L 364.903125 228.14 
" style="fill:none;stroke:#000000;stroke-linecap:square;stroke-linejoin:miter;stroke-width:0.8;"/>
   </g>
   <g id="patch_6">
    <path d="M 30.103125 10.7 
L 364.903125 10.7 
" style="fill:none;stroke:#000000;stroke-linecap:square;stroke-linejoin:miter;stroke-width:0.8;"/>
   </g>
  </g>
 </g>
 <defs>
  <clipPath id="p92910f3403">
   <rect height="217.44" width="334.8" x="30.103125" y="10.7"/>
  </clipPath>
 </defs>
</svg>
