<?xml version="1.0" encoding="utf-8" standalone="no"?>
<!DOCTYPE svg PUBLIC "-//W3C//DTD SVG 1.1//EN"
  "http://www.w3.org/Graphics/SVG/1.1/DTD/svg11.dtd">
<!-- Created with matplotlib (http://matplotlib.org/) -->
<svg height="252.018125pt" version="1.1" viewBox="0 0 375.603125 252.018125" width="375.603125pt" xmlns="http://www.w3.org/2000/svg" xmlns:xlink="http://www.w3.org/1999/xlink">
 <defs>
  <style type="text/css">
*{stroke-linecap:butt;stroke-linejoin:round;}
  </style>
 </defs>
 <g id="figure_1">
  <g id="patch_1">
   <path d="M 0 252.018125 
L 375.603125 252.018125 
L 375.603125 0 
L 0 0 
z
" style="fill:none;"/>
  </g>
  <g id="axes_1">
   <g id="patch_2">
    <path d="M 30.103125 228.14 
L 364.903125 228.14 
L 364.903125 10.7 
L 30.103125 10.7 
z
" style="fill:#ffffff;"/>
   </g>
   <g id="matplotlib.axis_1">
    <g id="xtick_1">
     <g id="line2d_1">
      <defs>
       <path d="M 0 0 
L 0 3.5 
" id="mce7a520020" style="stroke:#000000;stroke-width:0.8;"/>
      </defs>
      <g>
       <use style="stroke:#000000;stroke-width:0.8;" x="45.321307" xlink:href="#mce7a520020" y="228.14"/>
      </g>
     </g>
     <g id="text_1">
      <!-- 0 -->
      <defs>
       <path d="M 31.78125 66.40625 
Q 24.171875 66.40625 20.328125 58.90625 
Q 16.5 51.421875 16.5 36.375 
Q 16.5 21.390625 20.328125 13.890625 
Q 24.171875 6.390625 31.78125 6.390625 
Q 39.453125 6.390625 43.28125 13.890625 
Q 47.125 21.390625 47.125 36.375 
Q 47.125 51.421875 43.28125 58.90625 
Q 39.453125 66.40625 31.78125 66.40625 
z
M 31.78125 74.21875 
Q 44.046875 74.21875 50.515625 64.515625 
Q 56.984375 54.828125 56.984375 36.375 
Q 56.984375 17.96875 50.515625 8.265625 
Q 44.046875 -1.421875 31.78125 -1.421875 
Q 19.53125 -1.421875 13.0625 8.265625 
Q 6.59375 17.96875 6.59375 36.375 
Q 6.59375 54.828125 13.0625 64.515625 
Q 19.53125 74.21875 31.78125 74.21875 
z
" id="DejaVuSans-30"/>
      </defs>
      <g transform="translate(42.140057 242.738437)scale(0.1 -0.1)">
       <use xlink:href="#DejaVuSans-30"/>
      </g>
     </g>
    </g>
    <g id="xtick_2">
     <g id="line2d_2">
      <g>
       <use style="stroke:#000000;stroke-width:0.8;" x="106.438503" xlink:href="#mce7a520020" y="228.14"/>
      </g>
     </g>
     <g id="text_2">
      <!-- 1000 -->
      <defs>
       <path d="M 12.40625 8.296875 
L 28.515625 8.296875 
L 28.515625 63.921875 
L 10.984375 60.40625 
L 10.984375 69.390625 
L 28.421875 72.90625 
L 38.28125 72.90625 
L 38.28125 8.296875 
L 54.390625 8.296875 
L 54.390625 0 
L 12.40625 0 
z
" id="DejaVuSans-31"/>
      </defs>
      <g transform="translate(93.713503 242.738437)scale(0.1 -0.1)">
       <use xlink:href="#DejaVuSans-31"/>
       <use x="63.623047" xlink:href="#DejaVuSans-30"/>
       <use x="127.246094" xlink:href="#DejaVuSans-30"/>
       <use x="190.869141" xlink:href="#DejaVuSans-30"/>
      </g>
     </g>
    </g>
    <g id="xtick_3">
     <g id="line2d_3">
      <g>
       <use style="stroke:#000000;stroke-width:0.8;" x="167.555699" xlink:href="#mce7a520020" y="228.14"/>
      </g>
     </g>
     <g id="text_3">
      <!-- 2000 -->
      <defs>
       <path d="M 19.1875 8.296875 
L 53.609375 8.296875 
L 53.609375 0 
L 7.328125 0 
L 7.328125 8.296875 
Q 12.9375 14.109375 22.625 23.890625 
Q 32.328125 33.6875 34.8125 36.53125 
Q 39.546875 41.84375 41.421875 45.53125 
Q 43.3125 49.21875 43.3125 52.78125 
Q 43.3125 58.59375 39.234375 62.25 
Q 35.15625 65.921875 28.609375 65.921875 
Q 23.96875 65.921875 18.8125 64.3125 
Q 13.671875 62.703125 7.8125 59.421875 
L 7.8125 69.390625 
Q 13.765625 71.78125 18.9375 73 
Q 24.125 74.21875 28.421875 74.21875 
Q 39.75 74.21875 46.484375 68.546875 
Q 53.21875 62.890625 53.21875 53.421875 
Q 53.21875 48.921875 51.53125 44.890625 
Q 49.859375 40.875 45.40625 35.40625 
Q 44.1875 33.984375 37.640625 27.21875 
Q 31.109375 20.453125 19.1875 8.296875 
z
" id="DejaVuSans-32"/>
      </defs>
      <g transform="translate(154.830699 242.738437)scale(0.1 -0.1)">
       <use xlink:href="#DejaVuSans-32"/>
       <use x="63.623047" xlink:href="#DejaVuSans-30"/>
       <use x="127.246094" xlink:href="#DejaVuSans-30"/>
       <use x="190.869141" xlink:href="#DejaVuSans-30"/>
      </g>
     </g>
    </g>
    <g id="xtick_4">
     <g id="line2d_4">
      <g>
       <use style="stroke:#000000;stroke-width:0.8;" x="228.672895" xlink:href="#mce7a520020" y="228.14"/>
      </g>
     </g>
     <g id="text_4">
      <!-- 3000 -->
      <defs>
       <path d="M 40.578125 39.3125 
Q 47.65625 37.796875 51.625 33 
Q 55.609375 28.21875 55.609375 21.1875 
Q 55.609375 10.40625 48.1875 4.484375 
Q 40.765625 -1.421875 27.09375 -1.421875 
Q 22.515625 -1.421875 17.65625 -0.515625 
Q 12.796875 0.390625 7.625 2.203125 
L 7.625 11.71875 
Q 11.71875 9.328125 16.59375 8.109375 
Q 21.484375 6.890625 26.8125 6.890625 
Q 36.078125 6.890625 40.9375 10.546875 
Q 45.796875 14.203125 45.796875 21.1875 
Q 45.796875 27.640625 41.28125 31.265625 
Q 36.765625 34.90625 28.71875 34.90625 
L 20.21875 34.90625 
L 20.21875 43.015625 
L 29.109375 43.015625 
Q 36.375 43.015625 40.234375 45.921875 
Q 44.09375 48.828125 44.09375 54.296875 
Q 44.09375 59.90625 40.109375 62.90625 
Q 36.140625 65.921875 28.71875 65.921875 
Q 24.65625 65.921875 20.015625 65.03125 
Q 15.375 64.15625 9.8125 62.3125 
L 9.8125 71.09375 
Q 15.4375 72.65625 20.34375 73.4375 
Q 25.25 74.21875 29.59375 74.21875 
Q 40.828125 74.21875 47.359375 69.109375 
Q 53.90625 64.015625 53.90625 55.328125 
Q 53.90625 49.265625 50.4375 45.09375 
Q 46.96875 40.921875 40.578125 39.3125 
z
" id="DejaVuSans-33"/>
      </defs>
      <g transform="translate(215.947895 242.738437)scale(0.1 -0.1)">
       <use xlink:href="#DejaVuSans-33"/>
       <use x="63.623047" xlink:href="#DejaVuSans-30"/>
       <use x="127.246094" xlink:href="#DejaVuSans-30"/>
       <use x="190.869141" xlink:href="#DejaVuSans-30"/>
      </g>
     </g>
    </g>
    <g id="xtick_5">
     <g id="line2d_5">
      <g>
       <use style="stroke:#000000;stroke-width:0.8;" x="289.790091" xlink:href="#mce7a520020" y="228.14"/>
      </g>
     </g>
     <g id="text_5">
      <!-- 4000 -->
      <defs>
       <path d="M 37.796875 64.3125 
L 12.890625 25.390625 
L 37.796875 25.390625 
z
M 35.203125 72.90625 
L 47.609375 72.90625 
L 47.609375 25.390625 
L 58.015625 25.390625 
L 58.015625 17.1875 
L 47.609375 17.1875 
L 47.609375 0 
L 37.796875 0 
L 37.796875 17.1875 
L 4.890625 17.1875 
L 4.890625 26.703125 
z
" id="DejaVuSans-34"/>
      </defs>
      <g transform="translate(277.065091 242.738437)scale(0.1 -0.1)">
       <use xlink:href="#DejaVuSans-34"/>
       <use x="63.623047" xlink:href="#DejaVuSans-30"/>
       <use x="127.246094" xlink:href="#DejaVuSans-30"/>
       <use x="190.869141" xlink:href="#DejaVuSans-30"/>
      </g>
     </g>
    </g>
    <g id="xtick_6">
     <g id="line2d_6">
      <g>
       <use style="stroke:#000000;stroke-width:0.8;" x="350.907287" xlink:href="#mce7a520020" y="228.14"/>
      </g>
     </g>
     <g id="text_6">
      <!-- 5000 -->
      <defs>
       <path d="M 10.796875 72.90625 
L 49.515625 72.90625 
L 49.515625 64.59375 
L 19.828125 64.59375 
L 19.828125 46.734375 
Q 21.96875 47.46875 24.109375 47.828125 
Q 26.265625 48.1875 28.421875 48.1875 
Q 40.625 48.1875 47.75 41.5 
Q 54.890625 34.8125 54.890625 23.390625 
Q 54.890625 11.625 47.5625 5.09375 
Q 40.234375 -1.421875 26.90625 -1.421875 
Q 22.3125 -1.421875 17.546875 -0.640625 
Q 12.796875 0.140625 7.71875 1.703125 
L 7.71875 11.625 
Q 12.109375 9.234375 16.796875 8.0625 
Q 21.484375 6.890625 26.703125 6.890625 
Q 35.15625 6.890625 40.078125 11.328125 
Q 45.015625 15.765625 45.015625 23.390625 
Q 45.015625 31 40.078125 35.4375 
Q 35.15625 39.890625 26.703125 39.890625 
Q 22.75 39.890625 18.8125 39.015625 
Q 14.890625 38.140625 10.796875 36.28125 
z
" id="DejaVuSans-35"/>
      </defs>
      <g transform="translate(338.182287 242.738437)scale(0.1 -0.1)">
       <use xlink:href="#DejaVuSans-35"/>
       <use x="63.623047" xlink:href="#DejaVuSans-30"/>
       <use x="127.246094" xlink:href="#DejaVuSans-30"/>
       <use x="190.869141" xlink:href="#DejaVuSans-30"/>
      </g>
     </g>
    </g>
   </g>
   <g id="matplotlib.axis_2">
    <g id="ytick_1">
     <g id="line2d_7">
      <defs>
       <path d="M 0 0 
L -3.5 0 
" id="mcf7f003dbc" style="stroke:#000000;stroke-width:0.8;"/>
      </defs>
      <g>
       <use style="stroke:#000000;stroke-width:0.8;" x="30.103125" xlink:href="#mcf7f003dbc" y="221.844159"/>
      </g>
     </g>
     <g id="text_7">
      <!-- 0.0 -->
      <defs>
       <path d="M 10.6875 12.40625 
L 21 12.40625 
L 21 0 
L 10.6875 0 
z
" id="DejaVuSans-2e"/>
      </defs>
      <g transform="translate(7.2 225.643378)scale(0.1 -0.1)">
       <use xlink:href="#DejaVuSans-30"/>
       <use x="63.623047" xlink:href="#DejaVuSans-2e"/>
       <use x="95.410156" xlink:href="#DejaVuSans-30"/>
      </g>
     </g>
    </g>
    <g id="ytick_2">
     <g id="line2d_8">
      <g>
       <use style="stroke:#000000;stroke-width:0.8;" x="30.103125" xlink:href="#mcf7f003dbc" y="179.32466"/>
      </g>
     </g>
     <g id="text_8">
      <!-- 0.1 -->
      <g transform="translate(7.2 183.123878)scale(0.1 -0.1)">
       <use xlink:href="#DejaVuSans-30"/>
       <use x="63.623047" xlink:href="#DejaVuSans-2e"/>
       <use x="95.410156" xlink:href="#DejaVuSans-31"/>
      </g>
     </g>
    </g>
    <g id="ytick_3">
     <g id="line2d_9">
      <g>
       <use style="stroke:#000000;stroke-width:0.8;" x="30.103125" xlink:href="#mcf7f003dbc" y="136.80516"/>
      </g>
     </g>
     <g id="text_9">
      <!-- 0.2 -->
      <g transform="translate(7.2 140.604379)scale(0.1 -0.1)">
       <use xlink:href="#DejaVuSans-30"/>
       <use x="63.623047" xlink:href="#DejaVuSans-2e"/>
       <use x="95.410156" xlink:href="#DejaVuSans-32"/>
      </g>
     </g>
    </g>
    <g id="ytick_4">
     <g id="line2d_10">
      <g>
       <use style="stroke:#000000;stroke-width:0.8;" x="30.103125" xlink:href="#mcf7f003dbc" y="94.285661"/>
      </g>
     </g>
     <g id="text_10">
      <!-- 0.3 -->
      <g transform="translate(7.2 98.08488)scale(0.1 -0.1)">
       <use xlink:href="#DejaVuSans-30"/>
       <use x="63.623047" xlink:href="#DejaVuSans-2e"/>
       <use x="95.410156" xlink:href="#DejaVuSans-33"/>
      </g>
     </g>
    </g>
    <g id="ytick_5">
     <g id="line2d_11">
      <g>
       <use style="stroke:#000000;stroke-width:0.8;" x="30.103125" xlink:href="#mcf7f003dbc" y="51.766162"/>
      </g>
     </g>
     <g id="text_11">
      <!-- 0.4 -->
      <g transform="translate(7.2 55.56538)scale(0.1 -0.1)">
       <use xlink:href="#DejaVuSans-30"/>
       <use x="63.623047" xlink:href="#DejaVuSans-2e"/>
       <use x="95.410156" xlink:href="#DejaVuSans-34"/>
      </g>
     </g>
    </g>
   </g>
   <g id="line2d_12">
    <defs>
     <path d="M 0 1 
C 0.265203 1 0.51958 0.894634 0.707107 0.707107 
C 0.894634 0.51958 1 0.265203 1 0 
C 1 -0.265203 0.894634 -0.51958 0.707107 -0.707107 
C 0.51958 -0.894634 0.265203 -1 0 -1 
C -0.265203 -1 -0.51958 -0.894634 -0.707107 -0.707107 
C -0.894634 -0.51958 -1 -0.265203 -1 0 
C -1 0.265203 -0.894634 0.51958 -0.707107 0.707107 
C -0.51958 0.894634 -0.265203 1 0 1 
z
" id="mf3de4e2f75" style="stroke:#000000;"/>
    </defs>
    <g clip-path="url(#p3dae227d33)">
     <use style="stroke:#000000;" x="45.321307" xlink:href="#mf3de4e2f75" y="20.583636"/>
     <use style="stroke:#000000;" x="46.543651" xlink:href="#mf3de4e2f75" y="31.24455"/>
     <use style="stroke:#000000;" x="47.765995" xlink:href="#mf3de4e2f75" y="47.155772"/>
     <use style="stroke:#000000;" x="48.988339" xlink:href="#mf3de4e2f75" y="49.478187"/>
     <use style="stroke:#000000;" x="50.210683" xlink:href="#mf3de4e2f75" y="76.484447"/>
     <use style="stroke:#000000;" x="51.433026" xlink:href="#mf3de4e2f75" y="64.700593"/>
     <use style="stroke:#000000;" x="52.65537" xlink:href="#mf3de4e2f75" y="65.441283"/>
     <use style="stroke:#000000;" x="53.877714" xlink:href="#mf3de4e2f75" y="78.770721"/>
     <use style="stroke:#000000;" x="55.100058" xlink:href="#mf3de4e2f75" y="92.408425"/>
     <use style="stroke:#000000;" x="56.322402" xlink:href="#mf3de4e2f75" y="51.291644"/>
     <use style="stroke:#000000;" x="57.544746" xlink:href="#mf3de4e2f75" y="124.966881"/>
     <use style="stroke:#000000;" x="58.76709" xlink:href="#mf3de4e2f75" y="85.405464"/>
     <use style="stroke:#000000;" x="59.989434" xlink:href="#mf3de4e2f75" y="76.592872"/>
     <use style="stroke:#000000;" x="61.211778" xlink:href="#mf3de4e2f75" y="78.26814"/>
     <use style="stroke:#000000;" x="62.434122" xlink:href="#mf3de4e2f75" y="182.585905"/>
     <use style="stroke:#000000;" x="63.656466" xlink:href="#mf3de4e2f75" y="80.844822"/>
     <use style="stroke:#000000;" x="64.87881" xlink:href="#mf3de4e2f75" y="56.425023"/>
     <use style="stroke:#000000;" x="66.101153" xlink:href="#mf3de4e2f75" y="56.612959"/>
     <use style="stroke:#000000;" x="67.323497" xlink:href="#mf3de4e2f75" y="83.076245"/>
     <use style="stroke:#000000;" x="68.545841" xlink:href="#mf3de4e2f75" y="83.626448"/>
     <use style="stroke:#000000;" x="69.768185" xlink:href="#mf3de4e2f75" y="92.176269"/>
     <use style="stroke:#000000;" x="70.990529" xlink:href="#mf3de4e2f75" y="211.327811"/>
     <use style="stroke:#000000;" x="72.212873" xlink:href="#mf3de4e2f75" y="212.595743"/>
     <use style="stroke:#000000;" x="73.435217" xlink:href="#mf3de4e2f75" y="85.527494"/>
     <use style="stroke:#000000;" x="74.657561" xlink:href="#mf3de4e2f75" y="86.108736"/>
     <use style="stroke:#000000;" x="75.879905" xlink:href="#mf3de4e2f75" y="86.74908"/>
     <use style="stroke:#000000;" x="77.102249" xlink:href="#mf3de4e2f75" y="215.531714"/>
     <use style="stroke:#000000;" x="78.324593" xlink:href="#mf3de4e2f75" y="56.278331"/>
     <use style="stroke:#000000;" x="79.546937" xlink:href="#mf3de4e2f75" y="88.747921"/>
     <use style="stroke:#000000;" x="80.769281" xlink:href="#mf3de4e2f75" y="89.558768"/>
     <use style="stroke:#000000;" x="81.991624" xlink:href="#mf3de4e2f75" y="216.577269"/>
     <use style="stroke:#000000;" x="83.213968" xlink:href="#mf3de4e2f75" y="91.227659"/>
     <use style="stroke:#000000;" x="84.436312" xlink:href="#mf3de4e2f75" y="216.676764"/>
     <use style="stroke:#000000;" x="85.658656" xlink:href="#mf3de4e2f75" y="216.637221"/>
     <use style="stroke:#000000;" x="86.881" xlink:href="#mf3de4e2f75" y="94.509314"/>
     <use style="stroke:#000000;" x="88.103344" xlink:href="#mf3de4e2f75" y="96.582139"/>
     <use style="stroke:#000000;" x="89.325688" xlink:href="#mf3de4e2f75" y="54.730196"/>
     <use style="stroke:#000000;" x="90.548032" xlink:href="#mf3de4e2f75" y="54.473803"/>
     <use style="stroke:#000000;" x="91.770376" xlink:href="#mf3de4e2f75" y="98.13155"/>
     <use style="stroke:#000000;" x="92.99272" xlink:href="#mf3de4e2f75" y="101.292874"/>
     <use style="stroke:#000000;" x="94.215064" xlink:href="#mf3de4e2f75" y="102.745341"/>
     <use style="stroke:#000000;" x="95.437408" xlink:href="#mf3de4e2f75" y="104.357255"/>
     <use style="stroke:#000000;" x="96.659752" xlink:href="#mf3de4e2f75" y="213.699974"/>
     <use style="stroke:#000000;" x="97.882095" xlink:href="#mf3de4e2f75" y="101.018624"/>
     <use style="stroke:#000000;" x="99.104439" xlink:href="#mf3de4e2f75" y="109.118588"/>
     <use style="stroke:#000000;" x="100.326783" xlink:href="#mf3de4e2f75" y="211.692629"/>
     <use style="stroke:#000000;" x="101.549127" xlink:href="#mf3de4e2f75" y="210.939183"/>
     <use style="stroke:#000000;" x="102.771471" xlink:href="#mf3de4e2f75" y="210.140667"/>
     <use style="stroke:#000000;" x="103.993815" xlink:href="#mf3de4e2f75" y="52.662898"/>
     <use style="stroke:#000000;" x="105.216159" xlink:href="#mf3de4e2f75" y="118.359351"/>
     <use style="stroke:#000000;" x="106.438503" xlink:href="#mf3de4e2f75" y="207.524442"/>
     <use style="stroke:#000000;" x="107.660847" xlink:href="#mf3de4e2f75" y="122.033886"/>
     <use style="stroke:#000000;" x="108.883191" xlink:href="#mf3de4e2f75" y="123.821831"/>
     <use style="stroke:#000000;" x="110.105535" xlink:href="#mf3de4e2f75" y="125.736059"/>
     <use style="stroke:#000000;" x="111.327879" xlink:href="#mf3de4e2f75" y="106.340364"/>
     <use style="stroke:#000000;" x="112.550222" xlink:href="#mf3de4e2f75" y="106.765134"/>
     <use style="stroke:#000000;" x="113.772566" xlink:href="#mf3de4e2f75" y="106.893543"/>
     <use style="stroke:#000000;" x="114.99491" xlink:href="#mf3de4e2f75" y="201.509208"/>
     <use style="stroke:#000000;" x="116.217254" xlink:href="#mf3de4e2f75" y="200.755763"/>
     <use style="stroke:#000000;" x="117.439598" xlink:href="#mf3de4e2f75" y="50.973173"/>
     <use style="stroke:#000000;" x="118.661942" xlink:href="#mf3de4e2f75" y="139.429889"/>
     <use style="stroke:#000000;" x="119.884286" xlink:href="#mf3de4e2f75" y="198.776055"/>
     <use style="stroke:#000000;" x="121.10663" xlink:href="#mf3de4e2f75" y="198.245837"/>
     <use style="stroke:#000000;" x="122.328974" xlink:href="#mf3de4e2f75" y="145.630508"/>
     <use style="stroke:#000000;" x="123.551318" xlink:href="#mf3de4e2f75" y="147.734372"/>
     <use style="stroke:#000000;" x="124.773662" xlink:href="#mf3de4e2f75" y="196.970252"/>
     <use style="stroke:#000000;" x="125.996006" xlink:href="#mf3de4e2f75" y="151.883"/>
     <use style="stroke:#000000;" x="127.21835" xlink:href="#mf3de4e2f75" y="196.437057"/>
     <use style="stroke:#000000;" x="128.440693" xlink:href="#mf3de4e2f75" y="156.216587"/>
     <use style="stroke:#000000;" x="129.663037" xlink:href="#mf3de4e2f75" y="49.42929"/>
     <use style="stroke:#000000;" x="130.885381" xlink:href="#mf3de4e2f75" y="49.268141"/>
     <use style="stroke:#000000;" x="132.107725" xlink:href="#mf3de4e2f75" y="49.09126"/>
     <use style="stroke:#000000;" x="133.330069" xlink:href="#mf3de4e2f75" y="48.923308"/>
     <use style="stroke:#000000;" x="134.552413" xlink:href="#mf3de4e2f75" y="107.715445"/>
     <use style="stroke:#000000;" x="135.774757" xlink:href="#mf3de4e2f75" y="169.495002"/>
     <use style="stroke:#000000;" x="136.997101" xlink:href="#mf3de4e2f75" y="48.381184"/>
     <use style="stroke:#000000;" x="138.219445" xlink:href="#mf3de4e2f75" y="48.224712"/>
     <use style="stroke:#000000;" x="139.441789" xlink:href="#mf3de4e2f75" y="175.982202"/>
     <use style="stroke:#000000;" x="140.664133" xlink:href="#mf3de4e2f75" y="107.32299"/>
     <use style="stroke:#000000;" x="141.886477" xlink:href="#mf3de4e2f75" y="180.050467"/>
     <use style="stroke:#000000;" x="143.108821" xlink:href="#mf3de4e2f75" y="47.901989"/>
     <use style="stroke:#000000;" x="144.331164" xlink:href="#mf3de4e2f75" y="198.760323"/>
     <use style="stroke:#000000;" x="145.553508" xlink:href="#mf3de4e2f75" y="106.841669"/>
     <use style="stroke:#000000;" x="146.775852" xlink:href="#mf3de4e2f75" y="187.38168"/>
     <use style="stroke:#000000;" x="147.998196" xlink:href="#mf3de4e2f75" y="47.927076"/>
     <use style="stroke:#000000;" x="149.22054" xlink:href="#mf3de4e2f75" y="200.626929"/>
     <use style="stroke:#000000;" x="150.442884" xlink:href="#mf3de4e2f75" y="191.99462"/>
     <use style="stroke:#000000;" x="151.665228" xlink:href="#mf3de4e2f75" y="193.350142"/>
     <use style="stroke:#000000;" x="152.887572" xlink:href="#mf3de4e2f75" y="202.042828"/>
     <use style="stroke:#000000;" x="154.109916" xlink:href="#mf3de4e2f75" y="105.959815"/>
     <use style="stroke:#000000;" x="155.33226" xlink:href="#mf3de4e2f75" y="202.990588"/>
     <use style="stroke:#000000;" x="156.554604" xlink:href="#mf3de4e2f75" y="105.67621"/>
     <use style="stroke:#000000;" x="157.776948" xlink:href="#mf3de4e2f75" y="105.521013"/>
     <use style="stroke:#000000;" x="158.999291" xlink:href="#mf3de4e2f75" y="204.35929"/>
     <use style="stroke:#000000;" x="160.221635" xlink:href="#mf3de4e2f75" y="204.796391"/>
     <use style="stroke:#000000;" x="161.443979" xlink:href="#mf3de4e2f75" y="201.550027"/>
     <use style="stroke:#000000;" x="162.666323" xlink:href="#mf3de4e2f75" y="104.884922"/>
     <use style="stroke:#000000;" x="163.888667" xlink:href="#mf3de4e2f75" y="104.724623"/>
     <use style="stroke:#000000;" x="165.111011" xlink:href="#mf3de4e2f75" y="206.467832"/>
     <use style="stroke:#000000;" x="166.333355" xlink:href="#mf3de4e2f75" y="204.271275"/>
     <use style="stroke:#000000;" x="167.555699" xlink:href="#mf3de4e2f75" y="207.217026"/>
     <use style="stroke:#000000;" x="168.778043" xlink:href="#mf3de4e2f75" y="207.572489"/>
     <use style="stroke:#000000;" x="170.000387" xlink:href="#mf3de4e2f75" y="53.698248"/>
     <use style="stroke:#000000;" x="171.222731" xlink:href="#mf3de4e2f75" y="103.673541"/>
     <use style="stroke:#000000;" x="172.445075" xlink:href="#mf3de4e2f75" y="206.838602"/>
     <use style="stroke:#000000;" x="173.667419" xlink:href="#mf3de4e2f75" y="103.27896"/>
     <use style="stroke:#000000;" x="174.889762" xlink:href="#mf3de4e2f75" y="56.015986"/>
     <use style="stroke:#000000;" x="176.112106" xlink:href="#mf3de4e2f75" y="208.055085"/>
     <use style="stroke:#000000;" x="177.33445" xlink:href="#mf3de4e2f75" y="57.244799"/>
     <use style="stroke:#000000;" x="178.556794" xlink:href="#mf3de4e2f75" y="57.868985"/>
     <use style="stroke:#000000;" x="179.779138" xlink:href="#mf3de4e2f75" y="58.502951"/>
     <use style="stroke:#000000;" x="181.001482" xlink:href="#mf3de4e2f75" y="102.116902"/>
     <use style="stroke:#000000;" x="182.223826" xlink:href="#mf3de4e2f75" y="101.91451"/>
     <use style="stroke:#000000;" x="183.44617" xlink:href="#mf3de4e2f75" y="101.724022"/>
     <use style="stroke:#000000;" x="184.668514" xlink:href="#mf3de4e2f75" y="211.306551"/>
     <use style="stroke:#000000;" x="185.890858" xlink:href="#mf3de4e2f75" y="211.522551"/>
     <use style="stroke:#000000;" x="187.113202" xlink:href="#mf3de4e2f75" y="62.389233"/>
     <use style="stroke:#000000;" x="188.335546" xlink:href="#mf3de4e2f75" y="210.966395"/>
     <use style="stroke:#000000;" x="189.55789" xlink:href="#mf3de4e2f75" y="100.713759"/>
     <use style="stroke:#000000;" x="190.780233" xlink:href="#mf3de4e2f75" y="100.51009"/>
     <use style="stroke:#000000;" x="192.002577" xlink:href="#mf3de4e2f75" y="211.603338"/>
     <use style="stroke:#000000;" x="193.224921" xlink:href="#mf3de4e2f75" y="65.638148"/>
     <use style="stroke:#000000;" x="194.447265" xlink:href="#mf3de4e2f75" y="212.878923"/>
     <use style="stroke:#000000;" x="195.669609" xlink:href="#mf3de4e2f75" y="99.657149"/>
     <use style="stroke:#000000;" x="196.891953" xlink:href="#mf3de4e2f75" y="212.333823"/>
     <use style="stroke:#000000;" x="198.114297" xlink:href="#mf3de4e2f75" y="68.145098"/>
     <use style="stroke:#000000;" x="199.336641" xlink:href="#mf3de4e2f75" y="213.507786"/>
     <use style="stroke:#000000;" x="200.558985" xlink:href="#mf3de4e2f75" y="213.654903"/>
     <use style="stroke:#000000;" x="201.781329" xlink:href="#mf3de4e2f75" y="213.792667"/>
     <use style="stroke:#000000;" x="203.003673" xlink:href="#mf3de4e2f75" y="213.100024"/>
     <use style="stroke:#000000;" x="204.226017" xlink:href="#mf3de4e2f75" y="71.129542"/>
     <use style="stroke:#000000;" x="205.44836" xlink:href="#mf3de4e2f75" y="71.702704"/>
     <use style="stroke:#000000;" x="206.670704" xlink:href="#mf3de4e2f75" y="72.263962"/>
     <use style="stroke:#000000;" x="207.893048" xlink:href="#mf3de4e2f75" y="213.619187"/>
     <use style="stroke:#000000;" x="209.115392" xlink:href="#mf3de4e2f75" y="214.527404"/>
     <use style="stroke:#000000;" x="210.337736" xlink:href="#mf3de4e2f75" y="97.229286"/>
     <use style="stroke:#000000;" x="211.56008" xlink:href="#mf3de4e2f75" y="213.966146"/>
     <use style="stroke:#000000;" x="212.782424" xlink:href="#mf3de4e2f75" y="96.827477"/>
     <use style="stroke:#000000;" x="214.004768" xlink:href="#mf3de4e2f75" y="214.929638"/>
     <use style="stroke:#000000;" x="215.227112" xlink:href="#mf3de4e2f75" y="75.940198"/>
     <use style="stroke:#000000;" x="216.449456" xlink:href="#mf3de4e2f75" y="96.260692"/>
     <use style="stroke:#000000;" x="217.6718" xlink:href="#mf3de4e2f75" y="96.081259"/>
     <use style="stroke:#000000;" x="218.894144" xlink:href="#mf3de4e2f75" y="215.270219"/>
     <use style="stroke:#000000;" x="220.116488" xlink:href="#mf3de4e2f75" y="77.79915"/>
     <use style="stroke:#000000;" x="221.338831" xlink:href="#mf3de4e2f75" y="95.553167"/>
     <use style="stroke:#000000;" x="222.561175" xlink:href="#mf3de4e2f75" y="95.369483"/>
     <use style="stroke:#000000;" x="223.783519" xlink:href="#mf3de4e2f75" y="215.559352"/>
     <use style="stroke:#000000;" x="225.005863" xlink:href="#mf3de4e2f75" y="95.042933"/>
     <use style="stroke:#000000;" x="226.228207" xlink:href="#mf3de4e2f75" y="215.069952"/>
     <use style="stroke:#000000;" x="227.450551" xlink:href="#mf3de4e2f75" y="94.749974"/>
     <use style="stroke:#000000;" x="228.672895" xlink:href="#mf3de4e2f75" y="94.601156"/>
     <use style="stroke:#000000;" x="229.895239" xlink:href="#mf3de4e2f75" y="81.017026"/>
     <use style="stroke:#000000;" x="231.117583" xlink:href="#mf3de4e2f75" y="81.379292"/>
     <use style="stroke:#000000;" x="232.339927" xlink:href="#mf3de4e2f75" y="215.428392"/>
     <use style="stroke:#000000;" x="233.562271" xlink:href="#mf3de4e2f75" y="82.063006"/>
     <use style="stroke:#000000;" x="234.784615" xlink:href="#mf3de4e2f75" y="215.560202"/>
     <use style="stroke:#000000;" x="236.006959" xlink:href="#mf3de4e2f75" y="216.087869"/>
     <use style="stroke:#000000;" x="237.229302" xlink:href="#mf3de4e2f75" y="93.676357"/>
     <use style="stroke:#000000;" x="238.451646" xlink:href="#mf3de4e2f75" y="93.564105"/>
     <use style="stroke:#000000;" x="239.67399" xlink:href="#mf3de4e2f75" y="93.45398"/>
     <use style="stroke:#000000;" x="240.896334" xlink:href="#mf3de4e2f75" y="83.882415"/>
     <use style="stroke:#000000;" x="242.118678" xlink:href="#mf3de4e2f75" y="216.28601"/>
     <use style="stroke:#000000;" x="243.341022" xlink:href="#mf3de4e2f75" y="215.971366"/>
     <use style="stroke:#000000;" x="244.563366" xlink:href="#mf3de4e2f75" y="216.355317"/>
     <use style="stroke:#000000;" x="245.78571" xlink:href="#mf3de4e2f75" y="216.077239"/>
     <use style="stroke:#000000;" x="247.008054" xlink:href="#mf3de4e2f75" y="216.129113"/>
     <use style="stroke:#000000;" x="248.230398" xlink:href="#mf3de4e2f75" y="216.179711"/>
     <use style="stroke:#000000;" x="249.452742" xlink:href="#mf3de4e2f75" y="216.482875"/>
     <use style="stroke:#000000;" x="250.675086" xlink:href="#mf3de4e2f75" y="216.513064"/>
     <use style="stroke:#000000;" x="251.897429" xlink:href="#mf3de4e2f75" y="216.542828"/>
     <use style="stroke:#000000;" x="253.119773" xlink:href="#mf3de4e2f75" y="216.572166"/>
     <use style="stroke:#000000;" x="254.342117" xlink:href="#mf3de4e2f75" y="216.600229"/>
     <use style="stroke:#000000;" x="255.564461" xlink:href="#mf3de4e2f75" y="216.628717"/>
     <use style="stroke:#000000;" x="256.786805" xlink:href="#mf3de4e2f75" y="216.65593"/>
     <use style="stroke:#000000;" x="258.009149" xlink:href="#mf3de4e2f75" y="86.982512"/>
     <use style="stroke:#000000;" x="259.231493" xlink:href="#mf3de4e2f75" y="216.71078"/>
     <use style="stroke:#000000;" x="260.453837" xlink:href="#mf3de4e2f75" y="216.625741"/>
     <use style="stroke:#000000;" x="261.676181" xlink:href="#mf3de4e2f75" y="216.763504"/>
     <use style="stroke:#000000;" x="262.898525" xlink:href="#mf3de4e2f75" y="87.641139"/>
     <use style="stroke:#000000;" x="264.120869" xlink:href="#mf3de4e2f75" y="216.815803"/>
     <use style="stroke:#000000;" x="265.343213" xlink:href="#mf3de4e2f75" y="92.041907"/>
     <use style="stroke:#000000;" x="266.565557" xlink:href="#mf3de4e2f75" y="216.865976"/>
     <use style="stroke:#000000;" x="267.7879" xlink:href="#mf3de4e2f75" y="88.221105"/>
     <use style="stroke:#000000;" x="269.010244" xlink:href="#mf3de4e2f75" y="91.96027"/>
     <use style="stroke:#000000;" x="270.232588" xlink:href="#mf3de4e2f75" y="216.925503"/>
     <use style="stroke:#000000;" x="271.454932" xlink:href="#mf3de4e2f75" y="216.960369"/>
     <use style="stroke:#000000;" x="272.677276" xlink:href="#mf3de4e2f75" y="216.99396"/>
     <use style="stroke:#000000;" x="273.89962" xlink:href="#mf3de4e2f75" y="217.016495"/>
     <use style="stroke:#000000;" x="275.121964" xlink:href="#mf3de4e2f75" y="217.059865"/>
     <use style="stroke:#000000;" x="276.344308" xlink:href="#mf3de4e2f75" y="217.092605"/>
     <use style="stroke:#000000;" x="277.566652" xlink:href="#mf3de4e2f75" y="217.089203"/>
     <use style="stroke:#000000;" x="278.788996" xlink:href="#mf3de4e2f75" y="217.113439"/>
     <use style="stroke:#000000;" x="280.01134" xlink:href="#mf3de4e2f75" y="89.380186"/>
     <use style="stroke:#000000;" x="281.233684" xlink:href="#mf3de4e2f75" y="89.484784"/>
     <use style="stroke:#000000;" x="282.456028" xlink:href="#mf3de4e2f75" y="217.184447"/>
     <use style="stroke:#000000;" x="283.678371" xlink:href="#mf3de4e2f75" y="91.805499"/>
     <use style="stroke:#000000;" x="284.900715" xlink:href="#mf3de4e2f75" y="89.762437"/>
     <use style="stroke:#000000;" x="286.123059" xlink:href="#mf3de4e2f75" y="217.332415"/>
     <use style="stroke:#000000;" x="287.345403" xlink:href="#mf3de4e2f75" y="217.360478"/>
     <use style="stroke:#000000;" x="288.567747" xlink:href="#mf3de4e2f75" y="90.014152"/>
     <use style="stroke:#000000;" x="289.790091" xlink:href="#mf3de4e2f75" y="91.812727"/>
     <use style="stroke:#000000;" x="291.012435" xlink:href="#mf3de4e2f75" y="90.180828"/>
     <use style="stroke:#000000;" x="292.234779" xlink:href="#mf3de4e2f75" y="90.254812"/>
     <use style="stroke:#000000;" x="293.457123" xlink:href="#mf3de4e2f75" y="91.836113"/>
     <use style="stroke:#000000;" x="294.679467" xlink:href="#mf3de4e2f75" y="90.400229"/>
     <use style="stroke:#000000;" x="295.901811" xlink:href="#mf3de4e2f75" y="90.474213"/>
     <use style="stroke:#000000;" x="297.124155" xlink:href="#mf3de4e2f75" y="217.569674"/>
     <use style="stroke:#000000;" x="298.346498" xlink:href="#mf3de4e2f75" y="90.603897"/>
     <use style="stroke:#000000;" x="299.568842" xlink:href="#mf3de4e2f75" y="90.671078"/>
     <use style="stroke:#000000;" x="300.791186" xlink:href="#mf3de4e2f75" y="91.903719"/>
     <use style="stroke:#000000;" x="302.01353" xlink:href="#mf3de4e2f75" y="91.913073"/>
     <use style="stroke:#000000;" x="303.235874" xlink:href="#mf3de4e2f75" y="217.567548"/>
     <use style="stroke:#000000;" x="304.458218" xlink:href="#mf3de4e2f75" y="90.92492"/>
     <use style="stroke:#000000;" x="305.680562" xlink:href="#mf3de4e2f75" y="217.610067"/>
     <use style="stroke:#000000;" x="306.902906" xlink:href="#mf3de4e2f75" y="217.631327"/>
     <use style="stroke:#000000;" x="308.12525" xlink:href="#mf3de4e2f75" y="91.992159"/>
     <use style="stroke:#000000;" x="309.347594" xlink:href="#mf3de4e2f75" y="217.801405"/>
     <use style="stroke:#000000;" x="310.569938" xlink:href="#mf3de4e2f75" y="91.19832"/>
     <use style="stroke:#000000;" x="311.792282" xlink:href="#mf3de4e2f75" y="92.041057"/>
     <use style="stroke:#000000;" x="313.014626" xlink:href="#mf3de4e2f75" y="91.310146"/>
     <use style="stroke:#000000;" x="314.236969" xlink:href="#mf3de4e2f75" y="217.886019"/>
     <use style="stroke:#000000;" x="315.459313" xlink:href="#mf3de4e2f75" y="91.412193"/>
     <use style="stroke:#000000;" x="316.681657" xlink:href="#mf3de4e2f75" y="91.465768"/>
     <use style="stroke:#000000;" x="317.904001" xlink:href="#mf3de4e2f75" y="217.946396"/>
     <use style="stroke:#000000;" x="319.126345" xlink:href="#mf3de4e2f75" y="92.160111"/>
     <use style="stroke:#000000;" x="320.348689" xlink:href="#mf3de4e2f75" y="91.601405"/>
     <use style="stroke:#000000;" x="321.571033" xlink:href="#mf3de4e2f75" y="218.005499"/>
     <use style="stroke:#000000;" x="322.793377" xlink:href="#mf3de4e2f75" y="218.024632"/>
     <use style="stroke:#000000;" x="324.015721" xlink:href="#mf3de4e2f75" y="217.908554"/>
     <use style="stroke:#000000;" x="325.238065" xlink:href="#mf3de4e2f75" y="217.926838"/>
     <use style="stroke:#000000;" x="326.460409" xlink:href="#mf3de4e2f75" y="217.945121"/>
     <use style="stroke:#000000;" x="327.682753" xlink:href="#mf3de4e2f75" y="217.963404"/>
     <use style="stroke:#000000;" x="328.905097" xlink:href="#mf3de4e2f75" y="91.906695"/>
     <use style="stroke:#000000;" x="330.12744" xlink:href="#mf3de4e2f75" y="91.948789"/>
     <use style="stroke:#000000;" x="331.349784" xlink:href="#mf3de4e2f75" y="91.995986"/>
     <use style="stroke:#000000;" x="332.572128" xlink:href="#mf3de4e2f75" y="92.405023"/>
     <use style="stroke:#000000;" x="333.794472" xlink:href="#mf3de4e2f75" y="218.187482"/>
     <use style="stroke:#000000;" x="335.016816" xlink:href="#mf3de4e2f75" y="218.20449"/>
     <use style="stroke:#000000;" x="336.23916" xlink:href="#mf3de4e2f75" y="218.221923"/>
     <use style="stroke:#000000;" x="337.461504" xlink:href="#mf3de4e2f75" y="218.239356"/>
     <use style="stroke:#000000;" x="338.683848" xlink:href="#mf3de4e2f75" y="218.256364"/>
     <use style="stroke:#000000;" x="339.906192" xlink:href="#mf3de4e2f75" y="218.137734"/>
     <use style="stroke:#000000;" x="341.128536" xlink:href="#mf3de4e2f75" y="92.292772"/>
     <use style="stroke:#000000;" x="342.35088" xlink:href="#mf3de4e2f75" y="92.328914"/>
     <use style="stroke:#000000;" x="343.573224" xlink:href="#mf3de4e2f75" y="92.36548"/>
     <use style="stroke:#000000;" x="344.795567" xlink:href="#mf3de4e2f75" y="92.399496"/>
     <use style="stroke:#000000;" x="346.017911" xlink:href="#mf3de4e2f75" y="218.218946"/>
     <use style="stroke:#000000;" x="347.240255" xlink:href="#mf3de4e2f75" y="218.234679"/>
     <use style="stroke:#000000;" x="348.462599" xlink:href="#mf3de4e2f75" y="92.506645"/>
     <use style="stroke:#000000;" x="349.684943" xlink:href="#mf3de4e2f75" y="92.53981"/>
    </g>
   </g>
   <g id="patch_3">
    <path d="M 30.103125 228.14 
L 30.103125 10.7 
" style="fill:none;stroke:#000000;stroke-linecap:square;stroke-linejoin:miter;stroke-width:0.8;"/>
   </g>
   <g id="patch_4">
    <path d="M 364.903125 228.14 
L 364.903125 10.7 
" style="fill:none;stroke:#000000;stroke-linecap:square;stroke-linejoin:miter;stroke-width:0.8;"/>
   </g>
   <g id="patch_5">
    <path d="M 30.103125 228.14 
L 364.903125 228.14 
" style="fill:none;stroke:#000000;stroke-linecap:square;stroke-linejoin:miter;stroke-width:0.8;"/>
   </g>
   <g id="patch_6">
    <path d="M 30.103125 10.7 
L 364.903125 10.7 
" style="fill:none;stroke:#000000;stroke-linecap:square;stroke-linejoin:miter;stroke-width:0.8;"/>
   </g>
  </g>
 </g>
 <defs>
  <clipPath id="p3dae227d33">
   <rect height="217.44" width="334.8" x="30.103125" y="10.7"/>
  </clipPath>
 </defs>
</svg>
